<svg xmlns="http://www.w3.org/2000/svg" viewBox="0 0 1000 500"><defs><style>.a17b52ef-e424-472d-92e3-c79a65d86dc7{fill:#1069e2;}.fdf7b7f3-b435-4f69-893e-0e5e062f263a{fill:#18887e;}.a8af64af-9ee7-49a1-8f6e-8a0cb9efc249{fill:#18897e;}.a327770d-4342-4e8b-9ffe-177338292375{fill:#1a9285;}.b33b266a-3b85-4237-a114-6505659e4e1c{fill:#198b7f;}.a964c850-19d9-40ad-873d-bc3fb1ac85c7{fill:#18887d;}.bd7ddf80-e6c9-440c-8ddc-a308d9d34bf6{fill:#178378;}.a96a92b4-73f5-4971-b6c4-42018042dd22{fill:#65b9b1;}.f1299b3d-fad3-46c6-9a1e-543a54b719fa{fill:#19897e;}.adfb56bd-fa59-4df7-9864-f1d6cedd2c96{fill:#198c80;}.a919c5eb-0e2e-4a4f-89e3-323bb40a5af6{fill:#61b7ae;}.b1e33bc6-c2ba-42ba-9ce9-eb7f5ea37f9e{fill:#198b80;}.b9fd46be-7825-4491-8ef5-17c68ab60822{fill:#18867b;}.b608701e-b898-4ef1-b02a-79c314a12ecd{fill:#1b9386;}.e77d8945-f2c7-4542-aafc-aba2c1e7b831{fill:#86c8c2;}</style></defs><g id="b717a01e-fe3a-477a-b37d-9db343c727cf" data-name="Livello 1"><rect class="a17b52ef-e424-472d-92e3-c79a65d86dc7" x="0.07" width="1000" height="500"/></g><g id="f6d6332f-d19c-448b-8082-11fdc4516ebd" data-name="Livello 2"><path class="fdf7b7f3-b435-4f69-893e-0e5e062f263a" d="M1000,281l-87.1.06c-1.51,0-2.81,0-2.8-2.15s1.2-2.26,2.77-2.17,2.94.06,3.1-2.25,2.22-1.31,3.45-1.31q34.41-.07,68.81,0c3.93,0,7.85,0,11.77,0Z"/><path class="a8af64af-9ee7-49a1-8f6e-8a0cb9efc249" d="M1000,363.47c-3.3,0-6.61-.09-9.91,0-2.05.07-3-.48-3-2.74q.18-7.59,0-15.19c-.06-2.26.91-2.81,3-2.75,3.3.12,6.61,0,9.91,0Z"/><path class="a8af64af-9ee7-49a1-8f6e-8a0cb9efc249" d="M1000,307.29c-3.64-.25-7.3.47-10.93-.59-1.44-.41-1.93-1-1.92-2.41,0-5.07.07-10.15,0-15.22,0-1.89.8-2.46,2.56-2.43,3.43.08,6.87,0,10.3,0Z"/><path class="a8af64af-9ee7-49a1-8f6e-8a0cb9efc249" d="M1000,335c-3.31,0-6.63-.09-9.94,0-2.09.08-3-.56-2.93-2.79.12-4.84.09-9.68,0-14.52,0-1.71.54-2.4,2.27-2.85,3.53-.9,7.07-.25,10.59-.49Z"/><path class="a8af64af-9ee7-49a1-8f6e-8a0cb9efc249" d="M987.17,375.43c-.47-3.08.48-4.58,4-4.21a81.76,81.76,0,0,0,8.86.07v4.27Z"/><path class="a327770d-4342-4e8b-9ffe-177338292375" d="M29.43,296.6c0-7.93-.1-15.86.11-23.78.06-2.43-.58-3.91-2.86-4.66a3.74,3.74,0,0,1,3-.79c36.79.84,73.59.13,110.38.4,2.94,0,5.35-.69,7.06-3.17.86,1.63,1.5,3.22-.68,4.41-1.21.67-.76,1.88-.77,2.87,0,8.24,0,16.48,0,24.72,2,2.66,1.07,5.74,1.07,8.6,0,16.76-.1,33.53.06,50.29.06,5.55-.18,11.1-.15,16.65a4.22,4.22,0,0,1-1,3.3H135c-1.61-1.94-1-4.26-1.05-6.44-.11-2.94-.07-5.88,0-8.82,0-3.24-2-3.42-4.49-3.47s-4.1.53-4,3.47c.08,3.76.05,7.53,0,11.29,0,1.4,0,2.85-1.06,4h-6.42c-1.61-1.95-1-4.28-1-6.46-.11-2.94,0-5.88,0-8.82,0-2.31-.87-3.47-3.34-3.44-3.44,0-4.94.85-5.12,3.44-.23,3.52,0,7.06-.09,10.59,0,1.62.21,3.33-1.06,4.68h-5.72c-1.27-1.36-1-3.08-1-4.71-.08-3.67,0-7.34-.07-11-.08-2.91-2.09-3-4.22-3s-4.14.08-4.22,3c-.09,3.67,0,7.33-.06,11,0,1.63.21,3.35-1.06,4.72H84.34c-1.27-1.36-1-3.08-1-4.7-.07-3.55,0-7.09-.07-10.63-.09-2.93-2.06-3.37-4.4-3.35s-4,.68-4,3.35c-.11,3.54,0,7.08-.07,10.63,0,1.62.23,3.34-1,4.7H67.23c-1.28-1.37-1-3.09-1.06-4.72-.08-3.67,0-7.33-.07-11-.08-2.92-2.08-3-4.22-3s-4.14.08-4.22,3c-.1,3.67,0,7.34-.06,11,0,1.63.22,3.35-1.06,4.71H50.82c-1.19-1.24-1-2.82-1-4.33-.06-3.53.1-7.07-.07-10.59-.14-2.9-1.56-3.74-5.15-3.8-2.79,0-3.37,1.47-3.35,3.8q.06,5.3,0,10.59c0,1.52.13,3.1-1.06,4.34H29.43c-1.22-1.25-1-2.85-1-4.36.07-6.85-.06-13.7-.07-20.54,0-15.7.23-31.41-.07-47.11C28.25,301.12,27.78,298.67,29.43,296.6Z"/><path class="a327770d-4342-4e8b-9ffe-177338292375" d="M200.62,301.61l-.06,4.27c.55,6.7.37,13.41.35,20.13,0,16,.05,32.08,0,48.12l0,.69-.3.62H189.88c-1.89-2.81-.85-6-1-9-.23-3.77-.48-4.1-4.49-4.06-3.7,0-3.9.35-4.13,4.06-.19,3,.86,6.17-1,9h-5.72a3.54,3.54,0,0,1-.65-.93c-.6-2.77-.33-5.58-.3-8.37,0-2.34-.64-3.86-3.19-4.05a3.22,3.22,0,0,1-1.05-.56c-1.23-2.64-3.53-5-1.85-8.33,5.3-1.64,5.3-1.64,5.3-7.62,0-2.35-.07-4.7,0-7.05.08-2.82-1.59-3.24-3.88-3.2s-4.09.08-4,3c0,1.5.17,3.08-.84,4.42-1.89.54-2.15-1-2.62-2.13-3.45-8.27-5.75-16.71-5.1-25.87.45-6.34.08-6.36-5.87-7.72a3.06,3.06,0,0,1-1-.88c-2-4.12-1.34-5.6,3-5.64,15.18-.15,30.37-.09,45.55,0C198.28,300.51,199.62,300.54,200.62,301.61Z"/><path class="a327770d-4342-4e8b-9ffe-177338292375" d="M18.74,375.44H12.31c-1.89-2.81-.85-6-1-9-.23-3.77-.48-4.1-4.49-4.06-3.69,0-3.9.35-4.13,4.06-.19,3,.86,6.17-1,9-2.5.13-1.38-1.79-1.38-2.75-.08-12.68-.07-25.35,0-38q0-16.89.11-33.77a4.76,4.76,0,0,1,3.63-1.1c6.16-.06,12.32-.14,18.47,0,4.57.12,5.71,1.86,4.58,6.45-1.09,1.4-2.71,1.33-4.23,1.36-2.1.05-3,1.05-3,3.1q0,5.68,0,11.36c0,2.14.73,3.38,3.07,3.36a5.66,5.66,0,0,1,3.74.89c2.32,5.35,1.16,7.89-4.32,9.06a2.66,2.66,0,0,0-2.45,2.87c-.06,3.77-.05,7.54,0,11.3,0,1.86.9,2.83,2.8,2.87a10.89,10.89,0,0,1,3.16.36,2.82,2.82,0,0,1,1.09.71c1,2.83,1.45,5.6-.83,8.09-.44.15.16,0-.3.17-5.92,1.71-5.89,1.71-6,8.31C19.76,371.9,20.15,373.85,18.74,375.44Z"/><path class="b33b266a-3b85-4237-a114-6505659e4e1c" d="M166.36,353.51c-.15,2.84,2.13,5,2.14,7.82a4,4,0,0,1-2.57,1c-.84.18-1.71.42-1.86,1.39a29.75,29.75,0,0,0,0,8.48c.17,1.34,1.38,1.45,2.47,1.54,2,.17,4.05-.2,6,.41a7,7,0,0,1,1,.65v.59h-27.8V296.6q27,0,54,0c1.31,0,3-.52,3.06,1.8,0,1.55.3,3.24-2.11,3.18h-47.4c-5.6,0-5.6,0-4,5a5.42,5.42,0,0,0-1.88,4.05c0,3.91,0,7.82,0,11.73,0,1.17-.1,2.56,1.42,2.91s3.38.64,4.86-.28c1.16-.73.48-1.95.13-2.91-1.3-3.57-2.43-7.19-3.8-10.73-.58-1.51-1.47-3-.76-4.77,7.13,0,7.64,0,7,7-.91,10,2.11,19,5.33,28.07.18.49.8.81,1.21,1.21a2.88,2.88,0,0,1,.9,2c.11,1.77,0,3.54.07,5.31a2.41,2.41,0,0,0,1.82,2.65A2.52,2.52,0,0,1,166.36,353.51Z"/><path class="a964c850-19d9-40ad-873d-bc3fb1ac85c7" d="M25.87,353.51c-7.13,0-7.13,0-7.13-7,0-3.19,0-6.37,0-9.56,0-1.67.37-2.54,2.33-2.67,5.54-.34,5.53-.44,5.53-6v-1.77c.07-.17.14-.35.2-.52,1.89-3.9.67-8,.9-12.07.13-2.28.53-4.69-.91-6.81-.07-.17-.13-.34-.19-.52,0-5.68,0-5.68-5.82-5.68H.31v-4.21l29.13-.07v78.84h-.71c-1.82-2.66-.74-5.67-1-8.51-.16-1.83.28-3.8-1.54-5.11-.11-.16-.21-.33-.31-.49,1.31-2.51.47-5.21.71-7.82,2.2-5.34.6-10.87.82-16.31-.69,3.73-.39,7.5-.51,11.26C26.84,350.19,27.18,352,25.87,353.51Z"/><path class="fdf7b7f3-b435-4f69-893e-0e5e062f263a" d="M251.22,375.44c0-4.49.09-9,0-13.45-.07-2.21.78-2.93,2.91-2.82a61.73,61.73,0,0,0,7.45,0c2.43-.16,3.38.64,3.27,3.18-.17,4.36-.05,8.73-.05,13.09Z"/><path class="fdf7b7f3-b435-4f69-893e-0e5e062f263a" d="M234.82,375.44c0-4.49.09-9,0-13.45-.07-2.21.78-2.93,2.9-2.82a61.89,61.89,0,0,0,7.46,0c2.43-.16,3.38.64,3.27,3.18-.18,4.36,0,8.73,0,13.09Z"/><path class="fdf7b7f3-b435-4f69-893e-0e5e062f263a" d="M296.15,375.44c0-4.49.09-9,0-13.45-.07-2.21.78-2.93,2.9-2.82a61.72,61.72,0,0,0,7.45,0c2.44-.16,3.38.64,3.28,3.18-.18,4.36-.05,8.73-.05,13.09Z"/><path class="fdf7b7f3-b435-4f69-893e-0e5e062f263a" d="M267.62,375.44c0-4.49.09-9,0-13.45-.06-2.21.79-2.93,2.91-2.82a61.73,61.73,0,0,0,7.45,0c2.43-.16,3.38.64,3.28,3.18-.18,4.36-.06,8.73-.06,13.09Z"/><path class="fdf7b7f3-b435-4f69-893e-0e5e062f263a" d="M373.88,375.44c0-4.49.09-9,0-13.45-.07-2.21.78-2.93,2.9-2.82a61.72,61.72,0,0,0,7.45,0c2.44-.16,3.39.64,3.28,3.18-.18,4.36-.05,8.73-.05,13.09Z"/><path class="fdf7b7f3-b435-4f69-893e-0e5e062f263a" d="M357.48,375.44c0-4.49.08-9-.05-13.45-.06-2.21.79-2.93,2.91-2.82a61.72,61.72,0,0,0,7.45,0c2.44-.16,3.38.64,3.28,3.18-.18,4.36-.05,8.73-.05,13.09Z"/><path class="fdf7b7f3-b435-4f69-893e-0e5e062f263a" d="M329,375.44c0-4.49.09-9,0-13.45-.06-2.21.79-2.93,2.91-2.82a61.73,61.73,0,0,0,7.45,0c2.43-.16,3.38.64,3.27,3.18-.17,4.36-.05,8.73-.05,13.09Z"/><path class="fdf7b7f3-b435-4f69-893e-0e5e062f263a" d="M312.55,375.44c0-4.49.09-9,0-13.45-.07-2.21.78-2.93,2.9-2.82a61.89,61.89,0,0,0,7.46,0c2.43-.16,3.38.64,3.27,3.18-.18,4.36-.05,8.73-.05,13.09Z"/><path class="a8af64af-9ee7-49a1-8f6e-8a0cb9efc249" d="M124.28,375.44c0-5.44.11-10.89,0-16.32-.07-2.52.5-3.6,3.31-3.53,8.44.21,7.38-.75,7.43,7.42,0,4.14,0,8.28,0,12.42Z"/><path class="a8af64af-9ee7-49a1-8f6e-8a0cb9efc249" d="M56.54,375.43c0-5.29.11-10.59,0-15.88-.09-2.84.78-4,3.8-4,7.7.18,6.92-.55,6.94,6.79,0,4.35,0,8.7,0,13.06Z"/><path class="a8af64af-9ee7-49a1-8f6e-8a0cb9efc249" d="M90.77,375.44c0-5.3.11-10.6,0-15.88-.09-2.84.77-4,3.8-4,7.69.18,6.92-.56,6.94,6.78q0,6.54,0,13.06Z"/><path class="fdf7b7f3-b435-4f69-893e-0e5e062f263a" d="M107.17,375.43c0-5.2.18-10.42-.08-15.61-.13-2.65.94-3.68,3.26-3.92,1.64-.16,3.3-.12,5-.27,2.1-.18,2.61.87,2.59,2.76-.08,5.68,0,11.37,0,17.05Z"/><path class="fdf7b7f3-b435-4f69-893e-0e5e062f263a" d="M40.13,375.44c0-5.33.21-10.67-.08-16-.17-3.28,1.05-4.29,4.07-3.82a9.35,9.35,0,0,0,1.06,0c5.27.11,5.65.49,5.65,5.58q0,7.11,0,14.2Z"/><path class="a8af64af-9ee7-49a1-8f6e-8a0cb9efc249" d="M73.65,375.43c0-5.31.16-10.62-.07-15.92-.11-2.72,1.26-3.57,3.47-3.8a18.07,18.07,0,0,1,3.89,0c2.22.23,3.58,1.08,3.47,3.8-.23,5.3-.07,10.61-.07,15.92Z"/><path class="fdf7b7f3-b435-4f69-893e-0e5e062f263a" d="M1.63,375.43c0-3.77.09-7.55,0-11.31-.08-2.21.8-2.78,2.9-2.83,7.83-.19,7.83-.26,7.83,7.43q0,3.36,0,6.72Z"/><path class="fdf7b7f3-b435-4f69-893e-0e5e062f263a" d="M179.2,375.43c0-3.77.09-7.55,0-11.31-.08-2.21.8-2.78,2.91-2.83,7.83-.19,7.83-.26,7.83,7.43,0,2.24,0,4.48,0,6.72Z"/><path class="fdf7b7f3-b435-4f69-893e-0e5e062f263a" d="M18.74,375.44c0-3.54.19-7.1-.06-10.62-.21-2.9.91-3.84,3.64-3.51a30,30,0,0,0,3.55,0h0c2,4.61,1.08,9.37.7,14.1Z"/><path class="fdf7b7f3-b435-4f69-893e-0e5e062f263a" d="M920.85,375.44c-.46-3.06.45-4.69,3.94-4.2a20.56,20.56,0,0,0,5.65,0c3.49-.49,4.41,1.14,3.95,4.2Z"/><path class="fdf7b7f3-b435-4f69-893e-0e5e062f263a" d="M943,375.44c-.46-3.06.46-4.69,3.95-4.2a20.56,20.56,0,0,0,5.65,0c3.49-.49,4.41,1.14,4,4.2Z"/><path class="fdf7b7f3-b435-4f69-893e-0e5e062f263a" d="M965.06,375.44c-.46-3.06.46-4.69,4-4.2a20.56,20.56,0,0,0,5.65,0c3.49-.49,4.4,1.14,3.94,4.2Z"/><path class="bd7ddf80-e6c9-440c-8ddc-a308d9d34bf6" d="M26.57,375.44c-1.48-4.64-.34-9.41-.7-14.1,2.12-.28,3,.56,2.89,2.77-.14,3.77,0,7.55,0,11.33Z"/><path class="a96a92b4-73f5-4971-b6c4-42018042dd22" d="M951,156.55a2.09,2.09,0,0,1,1.22,1.62c-1.67,1.8,0,4.07-1.17,6.61C950,161.68,951.23,159.08,951,156.55Z"/><path class="f1299b3d-fad3-46c6-9a1e-543a54b719fa" d="M147.11,264.6c.55,3.22-1.3,4.18-4.05,4.27-.95,0-1.9,0-2.85,0q-45.24,0-90.47,0c-7.69,0-15.4.46-23.06-.71C26,265,27,263.89,30.5,263.9c37.62.13,75.24.08,112.86.1C144.62,264,146,263.57,147.11,264.6Z"/><path class="a8af64af-9ee7-49a1-8f6e-8a0cb9efc249" d="M978.61,353v.71c0,10.76-.48,11.13-11.52,9.77-1.52-.18-2-.79-2-2.22q0-8.14,0-16.29c0-1.47.59-2.22,2.11-2.13h.35C978.61,342.05,978.61,342.05,978.61,353Z"/><path class="fdf7b7f3-b435-4f69-893e-0e5e062f263a" d="M956.5,353.12c0,2.59-.06,5.19,0,7.79.05,1.73-.49,2.74-2.41,2.55a5.63,5.63,0,0,0-.71,0c-10.45.27-10.45.27-10.45-10.1V347.7c0-4.85,0-4.85,5-4.86,8.5,0,8.5,0,8.5,8.51Z"/><path class="fdf7b7f3-b435-4f69-893e-0e5e062f263a" d="M934.39,353.23c0,2.6-.07,5.2,0,7.79.07,1.86-.72,2.62-2.52,2.44h-.35c-10.7.43-10.7.43-10.7-10.2v-.36c0-10.6,0-10.56,10.85-10.1,1.93.08,2.82.6,2.73,2.64C934.3,348,934.39,350.63,934.39,353.23Z"/><path class="fdf7b7f3-b435-4f69-893e-0e5e062f263a" d="M934.39,325.22c0,.12,0,.24,0,.35-.27,3,1.42,7.28-.74,8.77-2.93,2-7.31.5-11.07.65-1.46.05-1.73-.92-1.73-2.11,0-5.2,0-10.39,0-15.59,0-1.43.5-2.26,2-2.18.35,0,.71,0,1.06,0C934.39,314.85,934.39,314.85,934.39,325.22Z"/><path class="fdf7b7f3-b435-4f69-893e-0e5e062f263a" d="M956.5,325.17c0,2.36-.07,4.72,0,7.08.08,1.87-.42,2.89-2.55,2.8-2.84-.12-5.68-.1-8.52,0-1.81,0-2.55-.62-2.52-2.47.07-4.95.09-9.91,0-14.87,0-2,.8-2.8,2.74-2.59H946C956.5,314.82,956.5,314.82,956.5,325.17Z"/><path class="fdf7b7f3-b435-4f69-893e-0e5e062f263a" d="M965.06,324.89c0-.12,0-.24,0-.35.27-3-1.43-7.28.75-8.76,2.94-2,7.32-.5,11.08-.64,1.46-.05,1.71.95,1.71,2.13,0,5.19,0,10.39,0,15.58,0,1.45-.53,2.25-2.07,2.16-.35,0-.71,0-1.06,0C965.06,335.27,965.06,335.27,965.06,324.89Z"/><path class="fdf7b7f3-b435-4f69-893e-0e5e062f263a" d="M920.84,296.56c0-2.48.08-5,0-7.44-.07-1.84.69-2.63,2.51-2.46a1.45,1.45,0,0,0,.36,0c10.7-.43,10.7-.43,10.7,10.2,0,9.78,0,9.68-9.76,9.78-2.87,0-4.16-.66-3.83-3.71A58.82,58.82,0,0,0,920.84,296.56Z"/><path class="fdf7b7f3-b435-4f69-893e-0e5e062f263a" d="M965.06,296.46c0-.11,0-.23,0-.35.27-3-1.42-7.28.74-8.77,2.93-2,7.31-.5,11.07-.64,1.46-.06,1.73.92,1.73,2.11,0,5.19,0,10.38,0,15.58,0,1.43-.5,2.26-2.05,2.18-.35,0-.71,0-1.07,0C965.06,306.84,965.06,306.84,965.06,296.46Z"/><path class="fdf7b7f3-b435-4f69-893e-0e5e062f263a" d="M943,296.69c0-10.19,0-10.1,10.17-10.09,2.62,0,3.55.72,3.43,3.4-.2,4.48-.18,9,0,13.45.1,2.56-.88,3.31-3.29,3.16-2.6-.16-5.21-.1-7.81,0-1.82.06-2.59-.61-2.52-2.46C943,301.65,943,299.17,943,296.69Z"/><path class="fdf7b7f3-b435-4f69-893e-0e5e062f263a" d="M248.36,336.65c0,9.05,0,8.89-9,9.12-3.47.08-4.95-.65-4.59-4.43s.05-7.56.09-11.34A6.78,6.78,0,0,1,241.3,323c3.32-.2,6.75,2.93,7,6.61C248.49,331.91,248.35,334.28,248.36,336.65Z"/><path class="fdf7b7f3-b435-4f69-893e-0e5e062f263a" d="M296.15,335.76c0-1.89,0-3.78,0-5.67.06-4.1,2.93-7.13,6.75-7.15a7.13,7.13,0,0,1,6.75,6.89c.15,4.48,0,9,.06,13.47,0,1.91-.82,2.45-2.58,2.41-2.84-.08-5.68-.09-8.52,0-1.86.06-2.55-.69-2.49-2.51C296.21,340.72,296.15,338.24,296.15,335.76Z"/><path class="fdf7b7f3-b435-4f69-893e-0e5e062f263a" d="M357.47,336.2c0-2,0-4,0-6,0-4.15,2.81-7.14,6.66-7.23a7.17,7.17,0,0,1,6.81,6.45c.22,4.72,0,9.45.07,14.17,0,1.49-.61,2.2-2.11,2.12-.6,0-1.19,0-1.78,0C357.47,345.74,357.47,345.74,357.47,336.2Z"/><path class="fdf7b7f3-b435-4f69-893e-0e5e062f263a" d="M264.75,336.57c0,9.13,0,9-9,9.2-3.47.08-5-.63-4.61-4.44s0-7.58.09-11.37a6.78,6.78,0,0,1,6.54-7c3-.14,6.7,3.22,7,6.51C264.9,331.82,264.75,334.2,264.75,336.57Z"/><path class="fdf7b7f3-b435-4f69-893e-0e5e062f263a" d="M387.42,336.66c0,9,0,8.86-9.1,9.12-3.65.1-4.83-.91-4.52-4.54s0-7.58.09-11.37a6.8,6.8,0,0,1,6.63-6.93c3-.07,6.64,3.35,6.86,6.61C387.54,331.91,387.41,334.29,387.42,336.66Z"/><path class="fdf7b7f3-b435-4f69-893e-0e5e062f263a" d="M312.54,336.13c0-2,0-4,0-6,.06-4.1,3-7.16,6.78-7.15,3.11,0,6.66,3.63,6.74,7.1.1,4.39,0,8.78.05,13.16,0,1.82-.65,2.66-2.5,2.49-.47,0-.95,0-1.43,0C312.54,345.74,312.54,345.74,312.54,336.13Z"/><path class="fdf7b7f3-b435-4f69-893e-0e5e062f263a" d="M267.62,336.15c0-2,0-4,0-6,.06-4,2.85-7.09,6.4-7.14s7,3.43,7.12,7.09c.11,4.38,0,8.77.05,13.15,0,1.83-.66,2.65-2.5,2.48-.47,0-.95,0-1.43,0C267.62,345.74,267.62,345.74,267.62,336.15Z"/><path class="fdf7b7f3-b435-4f69-893e-0e5e062f263a" d="M329,335.86c0-1.9,0-3.79,0-5.69.05-4,2.76-7.09,6.34-7.2,3.23-.1,7,3.27,7.16,6.68.16,4.61,0,9.23.05,13.85,0,1.44-.5,2.26-2.06,2.18-.47,0-.95,0-1.43,0C329,345.82,329,345.82,329,335.86Z"/><path class="bd7ddf80-e6c9-440c-8ddc-a308d9d34bf6" d="M219.84,374.84c-3.54,0-7.08-.07-10.62,0-2,.06-3.06-.45-3-2.73q.23-5.11,0-10.23c-.09-2.27.94-2.81,3-2.74,3.06.11,6.13,0,9.2,0,1.38,1.13,1.47,2.68,1.42,4.28.62,3.79,2.28,7.58,0,11.37Z"/><path class="fdf7b7f3-b435-4f69-893e-0e5e062f263a" d="M207.72,326.49v-.72c2-2.3,4.4-3.59,7.47-2.12s4.77,3.68,4.68,7.21a105.6,105.6,0,0,0,0,11c.25,3.21-.91,4.35-4,3.87a11.61,11.61,0,0,0-1.77,0h0a4.17,4.17,0,0,1-1.92-2.45c-1.56-4.46-2.91-9-4.66-13.38A3.21,3.21,0,0,1,207.72,326.49Z"/><path class="adfb56bd-fa59-4df7-9864-f1d6cedd2c96" d="M219.84,374.84V363.47c1,2.45,2.1,4.88,3,7.38C224.27,374.8,224.21,374.82,219.84,374.84Z"/><path class="a8af64af-9ee7-49a1-8f6e-8a0cb9efc249" d="M84.34,338.47V341c0,8.29,0,8.25-8.35,7.61-1.6-.12-2.37-.58-2.35-2.27,0-5.19,0-10.38,0-15.58,0-1,.15-2,1.42-2,2.6-.06,5.21-.08,7.8,0,1.52,0,1.45,1.28,1.46,2.35C84.35,333.52,84.34,336,84.34,338.47Z"/><path class="a8af64af-9ee7-49a1-8f6e-8a0cb9efc249" d="M40.13,338.66v-2.47c0-7.79,0-7.71,7.66-7.62,2.27,0,3.15.66,3.08,3-.15,4.71-.13,9.44,0,14.15.06,2.2-.79,2.79-2.9,2.84-7.83.19-7.83.26-7.83-7.44Z"/><path class="a8af64af-9ee7-49a1-8f6e-8a0cb9efc249" d="M117.86,338.42v2.48c0,8.28,0,8.24-8.3,7.66-1.56-.11-2.42-.48-2.41-2.22,0-5.19,0-10.38,0-15.57,0-1.47.57-2.18,2.09-2.15,2.13,0,4.26.06,6.39,0,1.72-.05,2.27.78,2.23,2.38C117.81,333.46,117.86,335.94,117.86,338.42Z"/><path class="a8af64af-9ee7-49a1-8f6e-8a0cb9efc249" d="M90.76,311.67v-2.49c0-8.31,0-8.27,8.37-7.62,1.63.13,2.36.62,2.34,2.3,0,5,0,9.93,0,14.89,0,1.95-.9,2.65-2.81,2.79-7.89.56-7.89.61-7.89-7.39Z"/><path class="a8af64af-9ee7-49a1-8f6e-8a0cb9efc249" d="M135,311.53c0,2.13-.13,4.26,0,6.38.21,2.85-1.06,3.71-3.78,3.63-8.35-.23-6.79,1.07-6.94-6.9-.06-3.55,0-7.09,0-10.64,0-1.08-.05-2.3,1.47-2.34,2.6-.07,5.21-.09,7.82,0,1.52.06,1.38,1.36,1.38,2.41C135,306.56,135,309.05,135,311.53Z"/><path class="a8af64af-9ee7-49a1-8f6e-8a0cb9efc249" d="M67.23,283.82v2.48c0,8.34,0,8.29-8.48,7.51-1.71-.16-2.24-.82-2.23-2.41,0-5,0-9.93,0-14.89,0-1.74.79-2.48,2.56-2.67,8-.83,8.13-.73,8.13,7.14Z"/><path class="a8af64af-9ee7-49a1-8f6e-8a0cb9efc249" d="M124.28,283.63c0-1.42,0-2.85,0-4.27.06-6.18-.71-5.46,5.5-5.49,5.19,0,5.19,0,5.19,5.35,0,3.9,0,7.81,0,11.72,0,1.9-.78,2.7-2.73,2.86-8,.66-8,.7-8-7.33Z"/><path class="a8af64af-9ee7-49a1-8f6e-8a0cb9efc249" d="M56.53,311.33v-2.48c0-7.82.71-8.36,8.74-7.28,1.57.21,2,.93,2,2.31q0,7.46,0,14.91c0,2-1,2.62-2.85,2.75-7.85.52-7.85.57-7.85-7.36Z"/><path class="a8af64af-9ee7-49a1-8f6e-8a0cb9efc249" d="M90.77,283.87c0-2.47,0-4.95,0-7.42a2.25,2.25,0,0,1,2.6-2.58c.24,0,.47,0,.71,0,8.38,0,7.33-.66,7.38,7,0,3.3,0,6.6,0,9.9,0,2.06-.81,2.9-2.93,3-7.78.45-7.78.51-7.78-7.11C90.76,285.76,90.76,284.82,90.77,283.87Z"/><path class="fdf7b7f3-b435-4f69-893e-0e5e062f263a" d="M40.13,283.66c0-1.77.14-3.56,0-5.31-.31-3.08.22-4.8,4.06-4.58,6,.34,6.65.52,6.66,4.64s-.06,8.28,0,12.42c0,2-.45,2.93-2.75,3-8,.25-8,.34-8-7.68Z"/><path class="fdf7b7f3-b435-4f69-893e-0e5e062f263a" d="M40.13,311.31v-2.12c0-8.33,0-8.29,8.38-7.63,1.63.13,2.35.64,2.33,2.31-.05,4.85-.06,9.7,0,14.54,0,1.63-.58,2.42-2.2,2.53a12.22,12.22,0,0,0-1.34.43c-6.2,1.24-7.18.44-7.18-5.8Z"/><path class="fdf7b7f3-b435-4f69-893e-0e5e062f263a" d="M117.86,284v2.48c0,7.95-.49,8.32-8.67,7.32-1.54-.18-2-.83-2-2.24q0-7.46,0-14.9c0-1.25.49-1.79,1.75-2.18a24.82,24.82,0,0,1,6.69-.63c1.69-.05,2.31.71,2.27,2.34C117.81,278.79,117.86,281.4,117.86,284Z"/><path class="fdf7b7f3-b435-4f69-893e-0e5e062f263a" d="M117.86,311.7c0,1.78-.14,3.56,0,5.32.31,3.08-.21,4.8-4,4.58-6-.34-6.66-.52-6.67-4.64s.07-8.28,0-12.41c0-2,.44-2.94,2.74-3,8-.25,8-.34,8,7.68Z"/><path class="a8af64af-9ee7-49a1-8f6e-8a0cb9efc249" d="M124.28,338.53c0-2.6,0-5.19,0-7.78,0-1.49.6-2.21,2.11-2.12.23,0,.47,0,.71,0,7.8-.32,7.87-.25,7.88,7.53v4.6c0,8.1-.35,8.36-8.33,7.82-1.91-.13-2.44-.89-2.39-2.61C124.34,343.49,124.28,341,124.28,338.53Z"/><path class="a8af64af-9ee7-49a1-8f6e-8a0cb9efc249" d="M84.34,284.08v2.12c0,8.28,0,8.24-8.35,7.61-1.61-.13-2.37-.59-2.35-2.28,0-4.95.06-9.91,0-14.86,0-1.52.83-2,2-2.42a12.42,12.42,0,0,1,4.92-.34c2.58.11,4.2,1.11,3.81,4.16A48.15,48.15,0,0,0,84.34,284.08Z"/><path class="a8af64af-9ee7-49a1-8f6e-8a0cb9efc249" d="M84.34,311.46c0,2-.13,4,0,6,.35,4.29-2.68,4-5.37,4s-5.62.29-5.4-4,.14-8.73,0-13.09c-.06-2.2.79-2.78,2.9-2.83,7.84-.19,7.83-.26,7.83,7.43Z"/><path class="a8af64af-9ee7-49a1-8f6e-8a0cb9efc249" d="M67.23,338.59c0,1.18,0,2.36,0,3.54-.16,7.38,1.25,6.16-6.69,6.47-2.9.11-3.87-1.31-3.95-3.67q-.2-6.36,0-12.74c.07-2.38,1.1-3.74,4-3.63,7.89.3,6.51-.93,6.66,6.49C67.25,336.23,67.23,337.41,67.23,338.59Z"/><path class="a8af64af-9ee7-49a1-8f6e-8a0cb9efc249" d="M101.46,338.8v2.13c0,7.87-.26,8.06-8.16,7.64-1.74-.1-2.59-.54-2.56-2.44.08-5.07.06-10.14,0-15.21,0-1.65.64-2.42,2.3-2.29h.36C101.46,328.18,101.46,328.18,101.46,338.8Z"/><path class="a8af64af-9ee7-49a1-8f6e-8a0cb9efc249" d="M189.89,316.55c0,2.48,0,5,0,7.44,0,1,.15,2.35-1.37,2.41-2.6.11-5.21.09-7.81,0-1.5,0-1.5-1.22-1.5-2.31,0-5.08,0-10.15,0-15.22,0-1.63.59-2.45,2.28-2.32h.35C189.89,306.11,189.89,306.11,189.89,316.55Z"/><path class="fdf7b7f3-b435-4f69-893e-0e5e062f263a" d="M189.89,343.5c0,1.54,0,3.08,0,4.62-.06,6,.66,5.38-5.24,5.38-6.18,0-5.4.68-5.45-5.52,0-3.43.15-6.87-.06-10.29-.14-2.34.6-3.58,3-3.76a2.24,2.24,0,0,0,.34-.11c6.33-1.43,7.45-.56,7.45,5.78Z"/><path class="a8af64af-9ee7-49a1-8f6e-8a0cb9efc249" d="M162.79,316.47c0-2.59,0-5.19,0-7.78,0-1.49.63-2.19,2.13-2.11h.71c7.79-.32,7.86-.25,7.86,7.53v4.6c0,8.05-.1,8.07-8,7.83-2.28-.07-2.83-1-2.74-3C162.88,321.2,162.79,318.83,162.79,316.47Z"/><path class="fdf7b7f3-b435-4f69-893e-0e5e062f263a" d="M166.36,353.51h-.72c-2.16-2.44-2.07-5.63-2.85-8.53v-5.67c0-5,0-5,4.88-5,5.1,0,5.1,0,5.1,5.14,0,3.41-.22,6.84.07,10.24.27,3.22-1,4.29-4,3.84A17,17,0,0,0,166.36,353.51Z"/><path class="bd7ddf80-e6c9-440c-8ddc-a308d9d34bf6" d="M172.77,374.84c-10,0-10,0-10-8.32,0-6-.58-5.1,5.71-5.19h.71C171.68,365.5,173.63,369.8,172.77,374.84Z"/><path class="a8af64af-9ee7-49a1-8f6e-8a0cb9efc249" d="M172.77,374.84c.2-3.42-1.35-6.37-2.53-9.44a30.69,30.69,0,0,1-1-4.07c3.26-.55,4.67.6,4.34,4.09-.3,3.12-.07,6.28-.07,9.42Z"/><path class="bd7ddf80-e6c9-440c-8ddc-a308d9d34bf6" d="M910.86,336.44c1.79-.14,2.17.85,2.16,2.4,0,7.08,0,14.16,0,21.24,0,.92.51,2.48-1.17,2.39-1.3-.07-.92-1.45-.92-2.32,0-7.9,0-15.8,0-23.7Z"/><path class="bd7ddf80-e6c9-440c-8ddc-a308d9d34bf6" d="M910.86,330.75c0-7.78,0-15.57,0-23.35,0-1-.52-2.59.92-2.64,1.81-.07,1.16,1.7,1.17,2.71.06,6.84,0,13.69,0,20.53,0,1.53,0,2.93-2.15,2.75Z"/><path class="a8af64af-9ee7-49a1-8f6e-8a0cb9efc249" d="M1.62,316.28v-2.13c0-8.28,0-8.24,8.36-7.61,1.6.13,2.37.58,2.35,2.28-.05,5.19,0,10.38,0,15.57,0,1-.15,2-1.42,2-2.6.06-5.21.08-7.81,0-1.52-.05-1.44-1.28-1.45-2.35C1.62,321.47,1.63,318.87,1.62,316.28Z"/><path class="fdf7b7f3-b435-4f69-893e-0e5e062f263a" d="M12.32,343.64c0,2.36-.12,4.74,0,7.09s-.82,2.78-2.92,2.82c-7.81.19-7.81.25-7.81-7.48a54.82,54.82,0,0,0-.07-7.8C1.05,334.81,3,334,5.7,333.66c1.17-.12,2.37,0,3.55-.08,2.26-.23,3.27.57,3.1,3S12.32,341.28,12.32,343.64Z"/><path class="fdf7b7f3-b435-4f69-893e-0e5e062f263a" d="M26.58,326.49c-7.84,0-7.84,0-7.84-7.67,0-2.94.19-5.89-.06-8.8s1-3.75,3.66-3.47a40,40,0,0,0,4.24,0h0a110.23,110.23,0,0,1,0,19.9Z"/><path class="bd7ddf80-e6c9-440c-8ddc-a308d9d34bf6" d="M25.87,353.51c0-5.2,0-10.4,0-15.6,0-1.34-.41-3.32,1.6-3.34s1.17,2,1.2,3.07c.1,4.37,0,8.74.05,13.11,0,1.54,0,2.94-2.15,2.76Z"/><path class="bd7ddf80-e6c9-440c-8ddc-a308d9d34bf6" d="M146.39,343.73c0-1.06-.09-2.13,0-3.18.2-1.95-1-4.65.64-5.7,2.25-1.43,5.28-.47,8-.46,1.28,0,1.35,1.11,1.35,2.09,0,4.95,0,9.9,0,14.86,0,1.44-.52,2.25-2.06,2.16H154c-7.56.57-7.56.57-7.56-6.94Z"/><path class="bd7ddf80-e6c9-440c-8ddc-a308d9d34bf6" d="M146.39,367.75c0-6.41,2-7.9,8.43-6.41,1.44.33,1.54,1.21,1.54,2.31,0,3,0,5.9,0,8.84,0,1.6-.55,2.24-2.24,2.39C146.38,375.57,146.39,375.62,146.39,367.75Z"/><path class="bd7ddf80-e6c9-440c-8ddc-a308d9d34bf6" d="M149.24,306.58c2,5.52,4.12,11,6.12,16.58.74,2.07.36,3.4-2.33,3.35-8.13-.13-6.49.66-6.63-6.15-.07-3.67.09-7.34-.05-11-.09-2.21.76-3.05,2.89-2.78Z"/><path class="bd7ddf80-e6c9-440c-8ddc-a308d9d34bf6" d="M162.79,345c1.06,2.8,2.6,5.45,2.85,8.53-2,.23-3-.42-2.88-2.66C162.91,348.91,162.79,346.94,162.79,345Z"/><path class="bd7ddf80-e6c9-440c-8ddc-a308d9d34bf6" d="M207.72,326.49c1.64,6.56,4.3,12.79,6.41,19.2-7.84,0-7.84,0-7.84-7.74,0-2.72,0-5.43,0-8.15C206.28,328.48,206.22,327.16,207.72,326.49Z"/><path class="bd7ddf80-e6c9-440c-8ddc-a308d9d34bf6" d="M200.6,324.68c2,1.79,2.76,3.17,2.79,4.72.1,4.73,0,9.47,0,14.21,0,1-.09,2-1.44,2-1.1,0-1.37-.76-1.37-1.67C200.6,337.79,200.6,331.68,200.6,324.68Z"/><path class="bd7ddf80-e6c9-440c-8ddc-a308d9d34bf6" d="M200.59,374.84c0-4.35,0-8.7,0-13.06,0-1-.3-2.35,1.27-2.44,1.87-.11,1.54,1.41,1.55,2.51,0,3.41-.09,6.83.05,10.24C203.57,374.3,202.68,375.11,200.59,374.84Z"/><path class="bd7ddf80-e6c9-440c-8ddc-a308d9d34bf6" d="M26.58,326.48a56.85,56.85,0,0,1,0-19.9c1.77-.15,2.18.82,2.16,2.38q-.07,7.57,0,15.14C28.76,325.66,28.35,326.63,26.58,326.48Z"/><path class="a919c5eb-0e2e-4a4f-89e3-323bb40a5af6" d="M.3,296.67q0-29.87-.1-59.73c0-21.57,0-43.14-.06-64.71a7.73,7.73,0,0,1,2.7-6.5,79.25,79.25,0,0,0,6.57-6.52c1.4-1.54,2.38-1.38,3.74,0,3,3.18,6.18,6.23,9.3,9.33.75.74,1.48,1.79,2.69,1.3s.68-1.86.7-2.82c.17-7.79.14-7.79,8.11-7.79,8.94,0,8.9,0,9-8.75,0-3.06-1.29-7,.53-8.94,2-2.08,6.08-.65,9.24-.68,10.93-.09,21.87,0,32.8,0,5.09,0,4.45-.57,4.47,4.63,0,8.53.12,17.07,0,25.6-.06,2.73.88,3.86,3.42,3.21,1.75-.45,5.23,1.72,5-1.76-.3-4.63,1.82-5.15,5.35-4.66,2.47.35,2.91-.85,2.9-3-.08-15.88,0-31.76,0-47.64,0-1.93-.35-3.92,2.76-3.64,2.19.2,1.89-1.6,1.94-3,.15-5.17.15-5.17,5.45-5.17,3.09,0,6.19-.16,9.26,0,2.59.17,3.22-.86,3.16-3.27-.14-5.8-.06-11.61,0-17.42,0-1.12-.31-2.34.59-3.36,1.61.52,1,1.79,1,2.69.06,6,.13,12.09,0,18.13-.07,2.42.54,3.37,3.13,3.23,3.91-.21,7.85.07,11.76-.09,2.31-.1,3.16.59,3.05,3s-1.25,5.69,3.4,5.54c1.35,0,.88,1.72.88,2.69,0,8.17,0,16.35,0,24.53,0,16.59.06,33.18-.06,49.77,0,2.85.61,4.06,3.71,3.9,4.62-.24,9.27-.16,13.9,0,2.22.06,3.42-.5,3.13-2.93-.35-2.88,1-3.85,3.77-3.36a28.35,28.35,0,0,0,4.59.47c2.16,0,3.37.74,3,3.12-.48,2.78,1.36,2.62,3.26,2.7,2.27.09,3.13-.66,3.11-3-.1-12.56,0-25.13-.11-37.69,0-3.32.55-4.16,4.1-3.39q22.94,5,46,9.29c2.86.55,3.6,1.57,3.59,4.34-.1,26.66-.06,53.33-.06,80v2.48l.66.35,20-30.28c3.88,5.86,7.54,11.36,11.17,16.87,2.42,3.66,4.91,7.28,7.13,11.05a5.33,5.33,0,0,0,5.2,2.88,38.5,38.5,0,0,1,7.43.63c3.65.69,4.36-.83,4.24-4.16-.25-6.87,0-13.75-.13-20.62,0-2.37.73-3,3.05-3,5.94.15,11.88.12,17.82,0,2.13-.05,3,.56,2.89,2.78-.15,4.38,0,8.77-.08,13.16-.06,2,.65,2.69,2.67,2.62,4-.13,8.1.2,12.11-.11,3.31-.26,4,1,3.86,4-.22,5.8,0,11.62-.11,17.42-.07,2.56.6,3.6,3.37,3.5,5.58-.2,11.18-.13,16.76,0,2,0,2.73-.67,2.64-2.67-.13-2.72.14-5.46-.08-8.17s.65-3.41,3.35-3.39c16.87.13,33.75.06,50.63.06a101.64,101.64,0,0,0,10.33-.07c3.63-.38,4.32,1.06,4.18,4.35-.26,6.39.12,12.8-.15,19.19-.14,3.36,1.85,2.77,3.82,2.87,2.13.11,3.75,0,3.44-2.88a58.43,58.43,0,0,1,0-6.75c.06-5.35-.65-4.82,4.67-4.83,22.46,0,44.92.1,67.38-.1,3.77,0,4.58,1.11,4.42,4.58-.28,5.91,0,11.85-.12,17.77-.06,2.37.73,3.15,3.06,3a71.77,71.77,0,0,1,7.48,0c2.58.08,5.09.46,4.57-3.61-.28-2.27,1.86-1.66,3.13-1.67,9.74,0,19.49-.15,29.23.05,3.1.06,4.23-.69,4-3.91-.3-3.89,0-7.82-.11-11.73-.06-2,.45-3,2.75-3q20.5.12,41,0c2.1,0,2.63.79,2.58,2.72-.1,4.14.15,8.31-.09,12.44-.18,3,1.54,2.83,3.55,2.81s3.93.27,3.8-3c-.24-6.15-.05-12.32-.08-18.49,0-1.55,0-2.95,2.18-2.66s2.55-.81,2.57-2.69-1.15-4.48,2.43-4.76c.86-.06.77-1.4.65-2.18-.47-3,1.1-3.47,3.7-3.44q14.07.18,28.16,0c2.65,0,4.49.22,4,3.53-.12.78-.08,2.05.86,2.08,3.49.12,2.55,2.59,2.69,4.56.09,1.17-.54,3,1.58,2.83,2.78-.23,2.72,1.4,2.7,3.32,0,5.92.06,11.85,0,17.77,0,2.26.63,3.12,3,3.14,2.66,0,2.41-1.55,2.41-3.25,0-14.34.06-28.68-.07-43,0-2.77.69-3.62,3.54-3.56,9.74.17,19.49,0,29.24.12,2.38,0,3.31-.75,2.93-3-.52-3.14,1.46-6.77-1.84-9.42a1.71,1.71,0,0,1,0-1.67c3.28-2.68,1.55-6.3,1.77-9.48.28-4.15.07-8.33.07-12.76,2,.67,1.48,1.79,1.49,2.59.05,5,.24,10-.08,14.93-.13,2,1.48,3.52,1,5.22-1,3.57-.74,7.17-.92,10.78-.11,2.15.53,2.9,2.77,2.83q7.85-.23,15.69,0c2.25.06,2.87-.75,2.79-2.87-.14-3.55.07-7.12-.08-10.67-.09-2.21.77-2.85,2.9-2.81,6.54.1,13.08,0,19.61.07,2.26,0,3.76-.28,3.34-3-.36-2.25.77-2.77,2.86-2.75,8.68.09,17.35,0,26,.09,2.44,0,3.57-.61,3.2-3.16a3.24,3.24,0,0,1,3.15-3.92c2.05,0,3.58,1.64,3.36,4.13-.15,1.63-.14,3.08,2.25,3,1.66-.08,1.28,1.4,1.29,2.38,0,4,.17,8.07,0,12.09-.12,2.45.81,3.06,3.06,3,3.55-.15,7.11,0,10.74,0-2.13-6-.8-11.94-1-17.8-.06-1.47,1.19-1.88,2.51-1.88h13.19a2.56,2.56,0,0,1,2.84,2.89c0,4.39,0,8.77,0,13.15,0,1.43-1,2.21-2.46,3.64,5.48,0,10.08.13,14.66-.06a3.41,3.41,0,0,0,3.46-3.7q0-20.62,0-41.24a3.49,3.49,0,0,0-.84-2.23c-1.1-1.43-.84-2.89,0-4.54a12.57,12.57,0,0,0,.15-10.46c-1.43-3.4-1.08-6.55,1.88-8.86.89-.69,1-1.85,1.31-2.85q7-21.06,14-42.1c.39-1.18.42-2.57,1.82-3.68,3.21,9.66,6.37,19.14,9.51,28.63,2,5.95,3.9,11.91,5.89,17.85.29.85.34,1.94,1.41,2.32s2.73-.31,2.61,1.58c-.14,2.28.83,4.72-.62,6.84s-1.81,8.74-.3,10.55,1.57,3.34-.06,4.88c-.94.89-.78,1.92-.78,3,0,10.31.05,20.63-.06,30.94,0,2.45.71,3.32,3.24,3.31s3.75-.54,3.55-3.36c-.22-3.18,0-6.39,0-9.59,0-.94.3-2.16-.51-2.69-1.29-.85-2.2-2.05-1.12-3.09s1.87-2.77,4.16-2.75c16.4.14,32.8.05,49.2.09,3.21,0,4.74,2.77,3.1,5.43a4.08,4.08,0,0,0-.49,2.36c0,4,.07,8.07,0,12.09-.06,1.93.71,2.43,2.51,2.39,4.16-.1,8.32-.09,12.48,0,1.67,0,2.56-.55,2.22-2.23-.45-2.2,1.81-5.8-3-5.89-.69,0-.49-1.2-.49-1.88,0-.86.48-1.37,1.33-1.28,2.48.23,2.15-1.44,2.23-3a12.33,12.33,0,0,0-1-4.47q-6.22-18.71-12.47-37.38c-.37-1.11-.59-2.27-.88-3.41a4.42,4.42,0,0,1-1.22-1.62c-.09-.78-.47-1.72.63-2.05s1.26.66,1.54,1.41c1.68,4.57,2.68,9.42,5.67,13.44-.37,1,.36,1.85.6,2.77,2.42,7.11,5.3,14.08,6.64,21.06-.61-2.75-.48-6-.55-9.29,0-1.15-.39-2.4.8-3.27.07-5.42.25-10.85.15-16.28,0-2.33.69-3,3-3,10.19.14,20.37.11,30.56.14V273.15c-1.72,1.44-3.81,1.1-5.79,1.1-23.21,0-46.42.24-69.62-.17-4.86-.09-8.12,2.31-11.85,4.16-1.84.91.33,1.83.66,2.76a5.76,5.76,0,0,1,.66,2.38c.62,5.94-.43,7.12-6.46,7.13H818.15a27.53,27.53,0,0,0-5.67.23c-3.44,1.75-3.6,2.35-1.39,5.47a4.76,4.76,0,0,1,.76,1.59c.18,5.73.91,11.47-.45,17.15A3.13,3.13,0,0,1,809,316c-.68.06-1.36.07-2,.1-26.57.23-53.15,0-79.72.14-2.27,0-4.85-.67-6.47,1.81a5,5,0,0,1-5.24.2c-1.37-1.46-1-3.31-1.11-5.06-.26-4.11.48-8.25-.39-12.34a5.25,5.25,0,0,0-.9-.79c-6.6-4.31-14-3-21.22-3.06q-36.5-.09-73,0c-2,0-4-.37-5.8,1a3.94,3.94,0,0,1-.74.89c-1.34,1.24-3.52,0-4.73,1.63a5.9,5.9,0,0,0-.23,2.67c.08,3.75.08,7.49,0,11.23a5.87,5.87,0,0,1-.91,3.68,5,5,0,0,1-5.32.11c-1.25-2.07-3.33-2-5.33-2-8.42,0-16.84,0-25.26,0q-30.58,0-61.17,0c-2,0-4.35-.6-5.89,1.51-1.83,1.43-4.44,1.27-6.16,3a13.44,13.44,0,0,1-4.24.4H417.61a10.32,10.32,0,0,1-3.87-.37,2.41,2.41,0,0,1-1-.81c-.9-1.93-.65-4-.41-6,.2-1.07,1.1-1.77,1.53-2.7.6-1.31,1.44-2.85-.76-3.66-54.45-.09-108.87,0-163.3,0-14.73,0-29.46,0-44.2,0-1.84,0-3.86.46-5.35-1.23a5.41,5.41,0,0,1-.1-4.76c1.53-3.31,1.21-3.81-2.85-3.82-15.37-.05-30.73,0-46.1,0-1.87,0-3.81.26-5.53-.81-1.2-1.39-1-3.1-1-4.74,0-6.15,0-12.31,0-18.47,0-1.9,0-3.8,1.22-5.44a1.78,1.78,0,0,0-.15-2.55c-1.42-.85-3-.65-4.52-.65Q87,265,33,265.1c-1.64,0-4.29-1.17-4.54,2.14a9.16,9.16,0,0,1,2.17,6.5c-.07,6.12,0,12.25,0,18.37,0,1.63.13,3.33-1,4.74-9.55,1.64-19.12,1.2-28.69.25C.65,297.08.48,296.82.3,296.67Z"/><path class="a327770d-4342-4e8b-9ffe-177338292375" d="M810.89,290.85c.66-2.23,2.54-1.33,3.89-1.34,30.72-.05,61.44,0,92.16-.05,7,0,5.95,1.06,6-5.95,0-.83-.06-1.66-.09-2.48,1.31-1.38,3-1.2,4.68-1.2q38.85-.06,77.69,0c1.66,0,3.36-.07,4.73,1.15v5.69c-2.44,1.77-5.25,1-7.89,1-2.91,0-4,1.07-3.9,3.95.15,3.28,0,6.58,0,9.87.06,3.75.7,4.33,4.57,4.68,2.41.22,5-.58,7.18,1.11v7.11c-2.07,1.63-4.53.93-6.83,1.09-4.28.3-4.88.85-4.92,5.05,0,3.29.07,6.58,0,9.87-.08,2.55,1,3.53,3.54,3.58,2.76.06,5.68-.78,8.24,1v7.82c-2.44,1.78-5.25,1.06-7.89,1-2.94,0-4,1.14-3.89,4q.21,5.29,0,10.59c-.12,2.85.95,4,3.89,4,2.64,0,5.45-.75,7.89,1v7.82c-2.09,1.62-4.55,1.08-6.84,1-2.76-.13-4.81.58-6,3.17H978.6c-2.87-4.6-10.67-4.6-13.54,0H956.5c-2.87-4.6-10.68-4.6-13.55,0h-8.56c-2.87-4.6-10.67-4.6-13.54,0h-7.14c-1.54-1.69-1.16-3.79-1.13-5.76.25-20.59,0-41.19.11-61.78,0-4.26-.25-8.52-.13-12.78.06-2.38-.77-3.24-3.34-3.21-31.22.37-62.45.12-93.67.16C813.92,292.06,812.18,292.25,810.89,290.85Z"/><path class="a327770d-4342-4e8b-9ffe-177338292375" d="M413.07,313c0,2.15,0,4.3,0,6.45a149.51,149.51,0,0,1,.38,15.12c0,13.2-.05,26.41,0,39.61l0,.68-.3.61h-9.28c-1.42-1.59-1-3.56-1.06-5.41-.08-2.24,0-4.48,0-6.73,0-2.05-.93-3-3-3-9.72-.06-8.16-.56-8.38,7.61-.07,2.53.72,5.23-1.05,7.54h-2.86c-1.43-1.59-1-3.56-1.06-5.41-.08-2.24,0-4.48,0-6.73,0-2.05-.92-3-3-3-9.72-.06-8.16-.56-8.38,7.61-.07,2.53.72,5.23-1.05,7.54H371c-1.43-1.59-1-3.56-1.07-5.41-.07-2.24,0-4.48,0-6.73,0-2.05-.92-3-3-3-9.72-.06-8.17-.56-8.39,7.61-.06,2.53.73,5.23-1,7.54h-15c-1.42-1.59-1-3.56-1.06-5.41-.08-2.24,0-4.48,0-6.73,0-2.05-.93-3-3-3-9.72-.06-8.16-.56-8.38,7.61-.07,2.53.72,5.23-1.05,7.54h-2.86c-1.42-1.59-1-3.56-1.06-5.41-.08-2.24,0-4.48,0-6.73,0-2.05-.93-3-3-3-9.72-.06-8.16-.56-8.38,7.61-.07,2.53.72,5.23-1.05,7.54h-2.86c-1.43-1.59-1-3.56-1.06-5.41-.08-2.24,0-4.48,0-6.73,0-2.05-.92-3-3-3-9.72-.06-8.17-.56-8.38,7.61-.07,2.53.72,5.23-1.05,7.54h-15c-1.42-1.59-1-3.56-1.06-5.41-.07-2.24,0-4.48,0-6.73,0-2.05-.93-3-3-3-9.72-.06-8.16-.56-8.38,7.61-.07,2.53.72,5.23-1.05,7.54h-2.86c-1.42-1.59-1-3.56-1.06-5.41-.08-2.24,0-4.48,0-6.73,0-2.05-.93-3-3-3-9.72-.06-8.16-.56-8.38,7.61-.07,2.53.72,5.23-1.05,7.54h-2.86c-1.43-1.59-1-3.56-1.06-5.41-.08-2.24,0-4.48,0-6.73,0-2.05-.92-3-3-3-9.72-.06-8.16-.56-8.38,7.61-.07,2.53.72,5.23-1.05,7.54h-15l-.17-.48.3-.4c2.3-.49,3.07-1.62,2-3.93a54.17,54.17,0,0,1-2.69-7.2,19.78,19.78,0,0,0-1.49-4.37c-1.12-3.19-2.1-6.43-3.37-9.57-.51-1.25-1.22-2.59-.21-4,4.69-1.71,4.69-1.71,4.69-7.14,0-2.23,0-4.46,0-6.69-.16-6.36-4.13-8.82-9.88-6.13a5.09,5.09,0,0,1-1.33.45c-1.4-.24-1.83-1.39-2.24-2.48-1-2.63-1.86-5.31-2.77-8-.43-1.24-.76-2.56.9-3.29a16.06,16.06,0,0,1,5.3-.45q99,0,198.1,0C409,311.83,411.26,311.37,413.07,313Z"/><path class="a327770d-4342-4e8b-9ffe-177338292375" d="M714.73,299.51c1.43,2.89.45,6,.63,8.94.18,3.16.07,6.34.09,9.51a37,37,0,0,1,.94,4.57c.39,15,.09,29.94.18,44.91,0,5.8,0,5.8,5.48,6.62.64.26,1.25.55,1.25,1.38-16.35,0-32.7.11-49,.11q-34,0-67.9-.11a4.63,4.63,0,0,1-1.11-3.62c0-16.65-.18-33.3.07-49.95,0-1.41,0-2.82,1-4l.09-15.61c1.83-1.57,4.06-1.12,6.15-1.12q47.56,0,95.14,0C710.16,301.14,712.75,301.57,714.73,299.51Z"/><path class="a327770d-4342-4e8b-9ffe-177338292375" d="M526.49,375.44h-10c-1.65-2.05-1-4.5-1-6.77.07-3.29-1.87-3.47-4.35-3.47s-4.41.18-4.34,3.47c.05,2.27.65,4.72-1,6.78h-8.55a4.17,4.17,0,0,1,.22-2.61c.34-13.37.16-26.74.09-40.1,0-2.84-.11-5.68.06-8.52.14-2.41,1.37-3.68,3.84-3.67.95,0,1.9,0,2.85,0h94a14.18,14.18,0,0,1,4.59.36,2.45,2.45,0,0,1,1.07.92,8.88,8.88,0,0,1,.66,4.17q0,22.38,0,44.78c0,1.63.18,3.35-1.13,4.7h-5c-1.65-2.06-1.06-4.51-1-6.78.08-3.28-1.85-3.47-4.34-3.47s-4.41.18-4.34,3.46c0,2.28.65,4.72-1,6.78h-9.28c-1.6-1.94-1-4.26-1-6.42,0-2.59-.78-3.82-3.64-3.83-5.52,0-5.61-.06-5.72,5.58,0,1.62.23,3.32-1,4.67h-9.28c-1.65-2.06-1.05-4.5-1-6.78.07-3.28-1.87-3.46-4.35-3.46s-4.41.19-4.34,3.47c.05,2.27.65,4.72-1,6.78h-10c-1.64-2.06-1-4.5-1-6.78.07-3.28-1.87-3.46-4.35-3.46s-4.41.19-4.34,3.47C527.54,370.93,528.14,373.38,526.49,375.44Z"/><path class="a327770d-4342-4e8b-9ffe-177338292375" d="M811,315.05q0-9.21,0-18.41c1.33-1.34,3.06-1.13,4.69-1.14q45.23,0,90.45,0c4.94,0,6.32,1.49,5.77,5.76-.19,1.5-.66,2.84-2.26,3.28-2.15.59-2.6,2.11-2.6,4.05,0,5.8,0,11.6,0,17.4,0,2,.66,3.45,2.81,3.86a4,4,0,0,1,1.15.67,6.15,6.15,0,0,1,.31,5.67,2.26,2.26,0,0,1-.92.84c-2.51.41-3.54,1.81-3.48,4.41.12,5.69.06,11.38,0,17.06,0,2.08.42,3.5,2.76,4.28s3.21,5.58,1,6.35c-3.32,1.18-3.64,3.91-4.83,6.3H903c-.2-.43,0,.08-.25-.25-1.22-1.34,0-4-2-4.62-2.71-.89-5.61-.4-8.43-.26-1.1.05-1.63.8-1.79,1.86s-.16,2.37-1.09,3.28h-2.86c-.2-.43,0,.08-.25-.25-1.22-1.34,0-4-2-4.62-2.71-.89-5.61-.4-8.43-.26-1.11.05-1.63.8-1.8,1.86s-.15,2.37-1.08,3.28h-6.43c-.2-.43.05.08-.25-.25-1.22-1.34,0-4-2-4.62-2.71-.89-5.61-.4-8.43-.26-1.1.05-1.63.8-1.79,1.86s-.16,2.37-1.09,3.28h-2.86c-.2-.43,0,.08-.25-.25-1.22-1.34,0-4-2-4.62-2.71-.89-5.61-.4-8.43-.26-1.1.05-1.63.8-1.8,1.86s-.15,2.37-1.08,3.28h-2.86c-.2-.43,0,.08-.25-.25-1.23-1.34,0-4-2-4.62-2.71-.89-5.61-.4-8.44-.26-1.1.05-1.62.8-1.79,1.86s-.15,2.37-1.08,3.28H811a3.45,3.45,0,0,1-.64-3.21c.87-6.34.12-12.7.29-19.05.29-11.31,0-22.62-.08-33.93A13.2,13.2,0,0,1,811,315.05Z"/><path class="a327770d-4342-4e8b-9ffe-177338292375" d="M743.28,375.44h-10c-1.45-1.69-.9-3.73-1-5.65s.12-3.73-1.45-5.15c-1.59-2.93-3.81-5.7-2.33-9.39,3-.55,3.91-2.38,3.75-5.29-.34-6,.38-11.95-.42-17.89-2.14-2-4.71-1-7-.78-1.65.18-1.15,2-1.26,3.27s.36,3.47-1.13,3.74c-1.76.31-2-1.92-2.55-3.23A81.16,81.16,0,0,1,716.55,325c-.34-1.33-1.34-2.93.4-4.15a15,15,0,0,1,5.29-.49h79.25c1.88,0,3.8-.2,5.59.63,2.22,3.39,1.91,6.14-1.2,8a4.28,4.28,0,0,0-2.33,4c0,6.84,0,13.68,0,20.51a4.46,4.46,0,0,0,2.25,4.08c3.27,2.1,3.26,4.32-.13,5.93-2.15,1-1.92,2.7-2.13,4.39-.31,2.52.69,5.22-1.09,7.53h-7.13c-1.65-2.05-1.05-4.5-1-6.77.07-3.29-1.87-3.47-4.35-3.47s-4.41.18-4.34,3.47c.05,2.27.65,4.72-1,6.78h-10c-1.65-2.05-1-4.5-1-6.77.07-3.29-1.87-3.47-4.35-3.47s-4.41.18-4.34,3.47c0,2.27.65,4.72-1,6.78H754c-1.65-2.06-1.05-4.51-1-6.78.07-3.29-1.87-3.47-4.35-3.47s-4.41.18-4.34,3.47C744.33,370.93,744.93,373.38,743.28,375.44Z"/><path class="a327770d-4342-4e8b-9ffe-177338292375" d="M446.62,375.44h-7.85c-1.56-1.85-.86-4.07-.95-6.14-.11-2.83-.05-5.67,0-8.5,0-1.95-.83-2.81-2.78-2.76-2.13,0-4.36-.4-6.37.15-2.88.79-3.81-.6-4.5-2.89-1.76-5.76-4.06-11.34-5.91-17.07a8.75,8.75,0,0,1-.35-1.75c.12-1.62-.68-2.92-1.36-4.31s-1.87-3,.33-4.26a15.26,15.26,0,0,1,4.94-.43h68a21,21,0,0,1,4.26.24,2.85,2.85,0,0,1,2.51,3.29c-.1,1.7-1.1,2.47-2.71,2.76-1.83.33-3.85-.44-5.46,1-1.48,5.34-.86,10.71-.34,16.06,1.1,1.55,2.76.94,4.2,1,4,.22,4.6.95,4.05,4.93a2.1,2.1,0,0,1-.86.86,9,9,0,0,1-4.18.5c-2.79-.15-3.76,1.2-3.68,3.83.09,3.05,0,6.11,0,9.17,0,1.51.14,3.09-1.05,4.33H478c-1.28-1.36-1-3.07-1.07-4.7-.05-2.36,0-4.72,0-7.08,0-5.28-2-6.75-7.28-5.41-1.68.43-1.88,1.59-1.91,2.93-.1,3.3,0,6.61-.06,9.91,0,1.52.13,3.1-1.07,4.35h-7.85c-1.19-1.24-1-2.83-1.05-4.35-.06-2.71,0-5.42-.05-8.14-.13-4.13-.76-4.73-4.78-4.8-4.89-.08-5.13.16-5.16,5.16,0,2.71,0,5.43,0,8.14C447.64,372.85,447.72,374.3,446.62,375.44Z"/><path class="a8af64af-9ee7-49a1-8f6e-8a0cb9efc249" d="M910.86,336.44v-5.69c1.35-1,1.07-2.52,1.08-3.9,0-6.13,0-12.25,0-18.38-.05,5.86,0,11.72,0,17.57,0,1.64.18,3.33-1,4.71-5,0-5,0-5-4.93V306.65c0-1.44-.18-3.07,2-2.9,4.27.34,2.75-2.82,2.92-4.85.26-3-2.09-2.26-3.7-2.26q-32.58,0-65.17,0l-31,0c-3.09-.52-2-3.25-2.37-5-.23-1.08,1.47-.58,2.3-.8q48.61,0,97.22.06c5.6,0,5.6-.12,5.6,5.68v78.84h-7.84c0-1.18.07-2.36,0-3.54-.14-1.87.43-3,2.54-2.75s2.52-1,2.5-2.81-.18-3.13-2.43-2.87c-2.41.28-2.64-1.15-2.62-3.05.07-6.36,0-12.73,0-19.09,0-4.88,0-4.88,5-4.88,1,1.15,1,2.58,1,4,0,6.12,0,12.24,0,18.37q.08-9.24,0-18.47C911.93,339,912.21,337.48,910.86,336.44Z"/><path class="b33b266a-3b85-4237-a114-6505659e4e1c" d="M200.59,375.44a.89.89,0,0,1,.19-.64c2.77-4.29,1.08-8.78,1.4-13.1-1.25,4.31.36,8.92-1.4,13.1-1.29-.88-.89-2.14-.89-3.27q0-31.17,0-62.33c0-1.13-.4-2.39.67-3.32,1.27,1.35,2.91.74,4.38.74q102.9,0,205.81.06c1.47,0,3.09-.61,4.42.62-1.94,1.66-4.3,1.11-6.5,1.11q-79.12.06-158.24,0c-14.73,0-29.47,0-44.2,0-4.26,0-4.56.47-3.51,4.51,1.82,4.21,2.47,8.87,5,12.8a1.42,1.42,0,0,1,.21,1.13c-1.24,5.23-.47,10.53-.48,15.81,0,1.27.93,1.79,2.13,1.91,1.39.14,2.85-.08,4.16.65l.41.42c1.12,4.6,3.67,8.74,4.28,13.5-2.3,1.81-5,1-7.53,1s-3.48,1.07-3.56,3.61c-.31,9.51-.38,9.51,8.88,10,1.28.07,2.63,0,3.63,1v.6Z"/><path class="b1e33bc6-c2ba-42ba-9ce9-eb7f5ea37f9e" d="M418.8,337.86a165.18,165.18,0,0,1,6.34,17.22c.56,1.64.77,3.52,3.23,2,.08-.05.23,0,.35,0,10-.82,10-.82,10,9.13v9.24h-.72c-1.73-2.32-.81-5-1-7.52-.11-1.52.06-3.06,0-4.59-.11-1.76.57-3.91-2.22-4.45-3.61-.69-5.75.07-7,2.71-.24,4.23,0,8.47,0,12.7a1.91,1.91,0,0,1-.38,1.15H413.1v-.59c4.54-.83,5.09-4,4.68-7.82-.21-2.1,0-4.24-.08-6.36-.06-1.06-.15-2.24-1.65-2.24s-1.75,1-1.81,2.15c-.2,3.18,0,6.37-.1,9.55,0,1.64.19,3.34-1.05,4.72-1-.81-.7-1.94-.7-3q0-24.75,0-49.48c0-1-.3-2.15.64-3a6.17,6.17,0,0,1,.09.62,3.11,3.11,0,0,1,1.1,2.25c-.16,2.31-.85,4.76,1.73,6.33.41,2.8,3.48,4.64,2.85,7.82-.51.12-.86-.17-1.27-.43-2.37-1.54-3.2-1.27-3.34,1.35-.21,3.77-.12,7.55,0,11.32,0,1.13.31,2.18,1.79,2.12s1.68-1.12,1.76-2.23c.16-2.12,0-4.25.09-6.37C417.86,340.7,417.54,339.1,418.8,337.86Z"/><path class="a8af64af-9ee7-49a1-8f6e-8a0cb9efc249" d="M446.62,375.44c0-5.1.08-10.19-.05-15.28-.05-2.24.55-3.35,3-3.12a19.92,19.92,0,0,0,4.63,0c3.63-.5,4.56,1.5,4.55,4.54v13.86Z"/><path class="fdf7b7f3-b435-4f69-893e-0e5e062f263a" d="M390.28,375.44c0-4.49.09-9,0-13.45-.07-2.21.78-2.93,2.9-2.82a61.89,61.89,0,0,0,7.46,0c2.43-.16,3.38.64,3.27,3.18-.17,4.36-.05,8.73-.05,13.09Z"/><path class="fdf7b7f3-b435-4f69-893e-0e5e062f263a" d="M466.58,375.44c0-5.08.12-10.16-.05-15.23-.08-2.53.84-3.19,3.27-3.2,8.19,0,8.19-.12,8.19,8.16v10.27Z"/><path class="a327770d-4342-4e8b-9ffe-177338292375" d="M802.46,375.44c0-3,0-5.92,0-8.88,0-2,.28-3.84,3-3.86a1.84,1.84,0,0,0,1.93-2.08,1.94,1.94,0,0,0-1.93-2.11c-2.4-.3-3-1.85-3-4,0-7.58,0-15.15,0-22.73,0-1.38.1-3,1.64-3.15,4.19-.45,3.29-3.45,3.35-6,0-.35,0-.71,0-1.06,1.43-.66,2,.31,2.18,1.38.42,2.74.93,5.55-1,8a4.23,4.23,0,0,0-2.23,4.08c0,5.56,0,11.12,0,16.68a3.83,3.83,0,0,0,2.13,3.76c2.09,2.73,1.7,5.67.76,8.65-2.41,1.32-3.18,3.36-3,6.05.14,1.8.42,3.75-1,5.33Z"/><path class="fdf7b7f3-b435-4f69-893e-0e5e062f263a" d="M486.55,375.44c0-5.08.12-10.16-.05-15.24-.09-2.54.85-3.36,3.28-3.17,2,.16,4,0,6,0a94,94,0,0,1,0,18.37Z"/><path class="a8af64af-9ee7-49a1-8f6e-8a0cb9efc249" d="M427.36,375.44v-.59c2.57-.87,3.33-2.33,2.08-5s-1.77-5.73-2.79-8.56c.25-2.93,1.82-3.72,4.72-3.63,6.68.22,6.69.06,6.69,6.8q0,5.46,0,10.94Z"/><path class="adfb56bd-fa59-4df7-9864-f1d6cedd2c96" d="M603.5,375.44V321.51a2,2,0,0,1,2.86,0q0,27,0,53.93Z"/><path class="a8af64af-9ee7-49a1-8f6e-8a0cb9efc249" d="M567.14,375.43c0-2.82.1-5.66,0-8.48-.11-2.21.81-2.76,2.9-2.82,8.54-.22,8.54-.28,8.54,8.12v3.18Z"/><path class="a8af64af-9ee7-49a1-8f6e-8a0cb9efc249" d="M505.81,375.44c0-2.83.1-5.66,0-8.48-.11-2.21.8-2.78,2.9-2.83,7.83-.19,7.83-.25,7.83,7.42v3.88Z"/><path class="a8af64af-9ee7-49a1-8f6e-8a0cb9efc249" d="M526.49,375.44c0-2.83.1-5.66,0-8.48-.11-2.21.8-2.78,2.9-2.83,7.83-.19,7.83-.26,7.83,7.42,0,1.29,0,2.59,0,3.88Z"/><path class="a8af64af-9ee7-49a1-8f6e-8a0cb9efc249" d="M547.17,375.44c0-2.83.1-5.66,0-8.48-.11-2.21.8-2.78,2.9-2.83,7.83-.19,7.83-.26,7.83,7.42v3.88Z"/><path class="a8af64af-9ee7-49a1-8f6e-8a0cb9efc249" d="M587.82,375.43c0-2.82.1-5.66,0-8.48-.11-2.21.81-2.77,2.9-2.82,7.83-.18,7.83-.25,7.83,7.42v3.89Z"/><path class="fdf7b7f3-b435-4f69-893e-0e5e062f263a" d="M743.28,375.44c0-2.83.1-5.66,0-8.48-.11-2.21.8-2.78,2.9-2.83,7.83-.18,7.83-.25,7.83,7.42v3.89Z"/><path class="a8af64af-9ee7-49a1-8f6e-8a0cb9efc249" d="M764,375.44c0-2.83.11-5.66,0-8.48-.11-2.21.8-2.78,2.9-2.83,7.83-.19,7.83-.25,7.83,7.42v3.88Z"/><path class="a8af64af-9ee7-49a1-8f6e-8a0cb9efc249" d="M784.64,375.44c0-2.83.11-5.66,0-8.48-.11-2.21.8-2.78,2.9-2.83,7.83-.19,7.83-.25,7.83,7.42v3.88Z"/><path class="bd7ddf80-e6c9-440c-8ddc-a308d9d34bf6" d="M731.15,364.18c1.78-.15,2.19.84,2.15,2.4-.06,2.95,0,5.9,0,8.85h-10l-.7-.6c-1.88-3-1.26-6.29-.73-9.49.3-1.83,2-2.11,3.54-2.24C727.42,363,729.39,363,731.15,364.18Z"/><path class="a8af64af-9ee7-49a1-8f6e-8a0cb9efc249" d="M820.3,375.44c0-6.28,0-6.28,6.41-6.28h.71c6.43,0,6.43,0,6.42,6.27Z"/><path class="a8af64af-9ee7-49a1-8f6e-8a0cb9efc249" d="M836.7,375.44c0-6.28,0-6.28,6.41-6.28h.71c6.43,0,6.43,0,6.42,6.27Z"/><path class="a8af64af-9ee7-49a1-8f6e-8a0cb9efc249" d="M853.1,375.44c0-6.28,0-6.28,6.41-6.28h.71c6.43,0,6.43,0,6.42,6.27Z"/><path class="a8af64af-9ee7-49a1-8f6e-8a0cb9efc249" d="M873.07,375.44c0-6.28,0-6.28,6.41-6.28h.71c6.43,0,6.43,0,6.42,6.27Z"/><path class="a8af64af-9ee7-49a1-8f6e-8a0cb9efc249" d="M889.47,375.44c0-6.28,0-6.28,6.41-6.28h.71c6.43,0,6.43,0,6.42,6.27Z"/><path class="b9fd46be-7825-4491-8ef5-17c68ab60822" d="M805.32,375.44c0-2.6.19-5.21-.05-7.78-.28-2.89.89-3.88,3.61-3.49,1.33-.71,2.44-.59,2.44,1.15,0,2.46.43,5-.3,7.39v2.73Z"/><path class="bd7ddf80-e6c9-440c-8ddc-a308d9d34bf6" d="M495.8,375.44a49.13,49.13,0,0,1,0-18.37c1.33-.71,2.46-.6,2.44,1.15-.08,5.3.45,10.62-.3,15.91l-.7,1.31Z"/><path class="f1299b3d-fad3-46c6-9a1e-543a54b719fa" d="M202.72,313c-3.11.06-2-2.29-2.09-3.82-.14-2,1.35-1.86,2.69-1.86H415.17c.26,2.24.61,4.52-2.1,5.67Z"/><path class="a8af64af-9ee7-49a1-8f6e-8a0cb9efc249" d="M811,372.71c0-2.07-.06-4.15,0-6.23.05-1.56-.47-2.44-2.16-2.31-.26-2.84.65-5.78-.71-8.53.1-.15.21-.31.31-.48,1.31-.91,1.5-2.29,1.51-3.72q0-8.25,0-16.48c0-1.44-.2-2.81-1.52-3.72l-.3-.49c.65-3.15,2.06-6.35-.71-9.24H716.18q-.36.51-.72,0c-.5-1.18-1.35-2.36,0-3.55l4.95,0c1.62-1.33,3.57-1.12,5.44-1.12,26.68,0,53.35-.06,80,0,1.47.3,2.25-.68,3-1.63l2.06-.14c1.13.89.77,2.15.77,3.29q0,25.53,0,51.05C811.72,370.52,812.11,371.79,811,372.71Z"/><path class="fdf7b7f3-b435-4f69-893e-0e5e062f263a" d="M714.73,299.51c.46,3.36-1.93,2.8-3.89,2.8H606.43c0-.94,0-1.88.05-2.82,1.76-1,3.82.27,5.58-.75h0c1.38-1.2,3.08-1.13,4.73-1.13q43.83,0,87.65,0c3.56,0,6.74,2,10.3,1.89Z"/><path class="a8af64af-9ee7-49a1-8f6e-8a0cb9efc249" d="M606.36,321.51H603.5c-1.22-.69-2.55-.35-3.83-.35-33.77-.05-67.55,0-101.32-.06a.78.78,0,0,1-.44-1.12c.44-3.75,3.39-1.3,5-2,1.37-1.24,3.07-1.15,4.72-1.16q44.48,0,88.95,0c1.65,0,3.36-.08,4.72,1.16l5,0C606.34,319.11,606.35,320.31,606.36,321.51Z"/><path class="b608701e-b898-4ef1-b02a-79c314a12ecd" d="M714.72,299.48c-34.22-1.61-68.46-.29-102.68-.74-.32-2.17.62-2.85,2.79-2.84q46,.08,92.11,0c1.31,0,2.42-.08,2.93,1.72C710.57,300.11,713.48,297.78,714.72,299.48Z"/><path class="a327770d-4342-4e8b-9ffe-177338292375" d="M601.35,318H503c-.17-2,.55-2.9,2.81-2.9q46.38.1,92.77,0C600.8,315.06,601.52,315.92,601.35,318Z"/><path class="a327770d-4342-4e8b-9ffe-177338292375" d="M807.46,318l-87.06,0c-.19-2.06.56-2.88,2.81-2.87q42.12.15,84.25.12A2,2,0,0,1,807.46,318Z"/><path class="a327770d-4342-4e8b-9ffe-177338292375" d="M497.91,320l0,.82c-.56,1.55-1.9,2-3.32,2.32a16.87,16.87,0,0,1-3.55.24q-36.1,0-72.22,0c-1.75,0-3.61.26-5.06-1.13l-.69-2.18Z"/><path class="a327770d-4342-4e8b-9ffe-177338292375" d="M807.46,318v-2.77h1.43C808.76,316.29,809.32,317.75,807.46,318Z"/><path class="b608701e-b898-4ef1-b02a-79c314a12ecd" d="M612.06,298.73c-1.7,1.48-3.74.41-5.58.75C608.19,298.1,610.22,299.18,612.06,298.73Z"/><path class="e77d8945-f2c7-4542-aafc-aba2c1e7b831" d="M796.91,209.28h4.29C799.14,210,798,209.92,796.91,209.28Z"/><path class="fdf7b7f3-b435-4f69-893e-0e5e062f263a" d="M390.28,336c0-2,0-4,0-6a6.82,6.82,0,0,1,6.23-6.95c3.19-.18,7.12,3.18,7.26,6.57.18,4.61,0,9.24.07,13.85,0,1.67-.66,2.35-2.32,2.31-3-.06-5.94-.09-8.91,0-2,.06-2.4-1-2.35-2.65C390.33,340.7,390.28,338.33,390.28,336Z"/><path class="b1e33bc6-c2ba-42ba-9ce9-eb7f5ea37f9e" d="M715.46,321.51h.72c2.25,5.36,3.34,11.17,6.15,16.62a9.32,9.32,0,0,0,.25-.95c.33-2.28-1.13-5.83.79-6.61a13.13,13.13,0,0,1,9.92.18c-1.73,1.45-3.81,1-5.77,1-2.23,0-3.23.91-3.18,3.16a22.87,22.87,0,0,1-.52,6.65c-.51,2.91,0,5.84-.23,8.74s.83,4.45,3.77,4.62a2.1,2.1,0,0,1,.94.7l2.85,8.53c-8.56,0-8.56,0-8.56,8.57,0,.7,0,1.4,0,2.09-7.14,0-7.14,0-7.14-7Z"/><path class="fdf7b7f3-b435-4f69-893e-0e5e062f263a" d="M655.56,357.83c0-3.19.12-6.39,0-9.58-.11-2.36.54-3.33,3.14-3.33,7.16,0,7.6.29,7.6,7.24,0,5.21-.09,10.41,0,15.62.06,2.2-.76,2.8-2.89,2.85-7.84.18-7.84.25-7.84-7.47Z"/><path class="fdf7b7f3-b435-4f69-893e-0e5e062f263a" d="M624.89,324.4c0,3.43-.06,6.86,0,10.29,0,1.85-.69,2.62-2.51,2.47-.59-.05-1.19,0-1.78,0-6.19,0-6.43-.25-6.43-6.22,0-5.56,0-11.12,0-16.67,0-1.95.59-2.66,2.63-2.75,8.1-.36,8.1-.43,8.1,7.56C624.9,320.85,624.9,322.62,624.89,324.4Z"/><path class="fdf7b7f3-b435-4f69-893e-0e5e062f263a" d="M634.88,324.34c0-3.43.06-6.86,0-10.29,0-1.8.62-2.43,2.47-2.54,8.25-.49,8.25-.55,8.25,7.77,0,4.61-.16,9.23.06,13.84.11,2.4-.76,3.48-3,3.72-.7.08-1.39.26-2.1.3-5.63.31-5.63.3-5.63-5.34Z"/><path class="fdf7b7f3-b435-4f69-893e-0e5e062f263a" d="M655.56,324.22c0-3.43,0-6.86,0-10.29,0-1.6.52-2.26,2.23-2.41,8.48-.78,8.48-.83,8.48,7.53,0,4.61-.18,9.24.07,13.84.13,2.54-.73,3.72-3.15,4-.71.07-1.4.23-2.11.26-5.51.26-5.51.26-5.51-5.11Z"/><path class="fdf7b7f3-b435-4f69-893e-0e5e062f263a" d="M634.88,357.73c0-3.43.07-6.87,0-10.29-.05-1.86.68-2.63,2.51-2.47.59,0,1.18,0,1.78,0,6.19,0,6.43.25,6.43,6.21,0,5.57-.06,11.13,0,16.68,0,1.95-.59,2.66-2.63,2.75-8.09.36-8.09.43-8.09-7.57Z"/><path class="fdf7b7f3-b435-4f69-893e-0e5e062f263a" d="M624.89,358.12c0,3.31,0,6.63,0,9.94.05,1.78-.58,2.44-2.45,2.56-8.27.51-8.26.57-8.26-7.75,0-4.61.15-9.23-.06-13.84-.11-2.38.71-3.51,3-3.74.47,0,.92-.23,1.39-.28,6.12-.7,6.36-.49,6.37,5.66C624.9,353.15,624.9,355.64,624.89,358.12Z"/><path class="a8af64af-9ee7-49a1-8f6e-8a0cb9efc249" d="M696.92,357.83c0-3.3.05-6.6,0-9.9,0-2.11.86-3.06,3-3a24.26,24.26,0,0,0,3.19,0c3.38-.28,4.67,1.25,4.59,4.59-.15,5.89-.11,11.79,0,17.69,0,2.4-.82,3.42-3.31,3.36-9.13-.2-7.19,1.1-7.41-7.11C696.88,361.61,696.92,359.72,696.92,357.83Z"/><path class="fdf7b7f3-b435-4f69-893e-0e5e062f263a" d="M676.24,357.89c0-2.95.2-5.91-.06-8.84s1.18-3.82,3.6-4a15.61,15.61,0,0,1,5.25.53A2.11,2.11,0,0,1,687,348c0,6.84,0,13.69,0,20.53,0,1-.15,2-1.43,2-2.6.05-5.2.07-7.8,0-1.52-.05-1.45-1.28-1.45-2.35C676.24,364.74,676.24,361.31,676.24,357.89Z"/><path class="fdf7b7f3-b435-4f69-893e-0e5e062f263a" d="M676.24,324c0-3.3.06-6.61,0-9.91,0-1.75.54-2.46,2.42-2.58,8.3-.53,8.3-.6,8.3,7.68,0,4.6-.2,9.21.07,13.8.16,2.64-.93,3.67-3.24,3.9a20,20,0,0,1-4.57.11c-1.87-.24-3.2-1-3-3.45C676.42,330.38,676.24,327.18,676.24,324Z"/><path class="fdf7b7f3-b435-4f69-893e-0e5e062f263a" d="M696.92,323.93c0-3.19.11-6.39,0-9.58-.1-2.22.79-2.79,2.9-2.84,7.67-.18,7.91-.1,7.79,7.71-.07,4.84.47,9.68-.35,14.51-.67,3.9-3.71,3.42-6.27,3.31s-4.52-.84-4.11-4.24A74.93,74.93,0,0,0,696.92,323.93Z"/><path class="a8af64af-9ee7-49a1-8f6e-8a0cb9efc249" d="M413.81,322.22q39,0,78,0A11,11,0,0,0,498,320.8q50.74,0,101.49,0c1.36,0,2.88-.54,4,.69H503.73c-5.06,0-5.06,0-5.06,4.88q0,22,0,44.06c0,1.24.47,2.63-.69,3.68,0-4.78,0-9.57,0-14.35,0-1.55-.07-2.89-2.15-2.71.57-3.34-.7-4.69-4.19-4.35-1.65.17-3.54.73-5.08-.63,2.5-1.77,5.35-.87,8.06-1,1.76.14,2.23-1,2.27-2.41q.18-5.79,0-11.58c0-1.42-.51-2.55-2.28-2.41-2.71-.17-5.55.72-8.05-1,1.43-1.33,3.2-.38,4.76-.73s4.52,1.38,4.46-2.21c-.06-3.31-2.74-2-4.29-2-20.43-.09-40.85-.06-61.28-.06H416C412.73,328.19,412.2,326.6,413.81,322.22Z"/><path class="a8af64af-9ee7-49a1-8f6e-8a0cb9efc249" d="M578.54,343.21c0,3.07-.07,6.14,0,9.21.07,2.19-.71,3.27-3.06,3.24-9.86-.1-8.25.94-8.36-7.85,0-4.37,0-8.74,0-13.11,0-4,.64-4.62,4.81-4.66.83,0,1.66,0,2.49,0,3.09-.19,4.23,1.37,4.12,4.31S578.54,340.26,578.54,343.21Z"/><path class="fdf7b7f3-b435-4f69-893e-0e5e062f263a" d="M505.8,342.83c0-3.43.07-6.86,0-10.29,0-1.8.61-2.67,2.48-2.5a13.45,13.45,0,0,0,1.42,0c6.65,0,6.82.14,6.82,6.54,0,5.32-.08,10.65,0,16,.05,2.22-.53,3.2-3,3.13-9.55-.26-7.52,1.28-7.76-7.52C505.76,346.38,505.8,344.61,505.8,342.83Z"/><path class="a8af64af-9ee7-49a1-8f6e-8a0cb9efc249" d="M547.16,343c0-3.18.11-6.37,0-9.55-.12-2.65,1-3.66,3.58-3.44,1.17.1,2.36,0,3.54,0,2.53,0,3.63,1.27,3.62,3.74,0,6.25-.06,12.5,0,18.75,0,2.28-.9,3.17-3.17,3.13-9.33-.16-7.31,1-7.54-7C547.12,346.8,547.16,344.91,547.16,343Z"/><path class="a8af64af-9ee7-49a1-8f6e-8a0cb9efc249" d="M598.51,343.25c0,3.3-.06,6.6,0,9.9.05,1.8-.61,2.53-2.47,2.52-9.71-.09-8.14.85-8.24-7.61-.05-4.59.07-9.2,0-13.79-.07-3,1.17-4.42,4.21-4.23a13.7,13.7,0,0,0,2.48,0c3.1-.38,4.29.9,4.08,4S598.51,340.18,598.51,343.25Z"/><path class="fdf7b7f3-b435-4f69-893e-0e5e062f263a" d="M536.47,343.51c0,3.07-.08,6.14,0,9.2.07,2-.47,3-2.76,3-9-.2-7.08,1-7.24-6.95-.1-5,.07-9.92,0-14.87-.06-2.2.48-3.21,2.94-3.15,8.63.22,6.88-.95,7.07,6.78C536.51,339.49,536.47,341.5,536.47,343.51Z"/><path class="a8af64af-9ee7-49a1-8f6e-8a0cb9efc249" d="M853.1,350c0-3.55.08-7.1,0-10.65-.06-2.07.55-2.88,2.8-3,10.79-.37,10.79-.44,10.79,10.23,0,4.26-.19,8.53.06,12.78.17,2.85-1.21,3.78-3.63,4h-.36c-9.62.84-9.62.84-9.62-8.83Z"/><path class="fdf7b7f3-b435-4f69-893e-0e5e062f263a" d="M886.61,349.81c0,3.43,0,6.85,0,10.27,0,1.64-.27,2.78-2.27,2.74a10.54,10.54,0,0,0-2,.52c-7.41,1.38-9.26-.11-9.26-7.44,0-5.55.08-11.1,0-16.64,0-2.17.73-2.8,2.87-2.86,10.71-.33,10.71-.39,10.71,10.23Z"/><path class="fdf7b7f3-b435-4f69-893e-0e5e062f263a" d="M833.84,317.6c0,3.3-.12,6.61,0,9.91.12,2.39-.59,3.28-3.16,3.3-10.43.12-10.43.2-10.43-10.17,0-4.37.16-8.74-.06-13.1-.13-2.49,1.06-3.44,3.16-3.71a27,27,0,0,1,9.13.65c1.5.33,1.3,1.47,1.31,2.5C833.85,310.52,833.84,314.06,833.84,317.6Z"/><path class="fdf7b7f3-b435-4f69-893e-0e5e062f263a" d="M850.24,317.94c0,3.19-.12,6.38,0,9.56.12,2.38-.56,3.29-3.15,3.31-10.44.12-10.44.21-10.44-10.16,0-4.37.16-8.74-.06-13.1-.12-2.48,1-3.45,3.15-3.72a27,27,0,0,1,9.13.65c1.51.33,1.32,1.46,1.32,2.49C850.25,310.62,850.24,314.28,850.24,317.94Z"/><path class="fdf7b7f3-b435-4f69-893e-0e5e062f263a" d="M833.84,349.7c0,3.32-.06,6.64,0,9.95,0,1.89-.18,3.26-2.57,3.21-1,0-2.07.51-3.12.58-7,.45-7.89-.36-7.89-7.24,0-5.69.06-11.38,0-17.07,0-2,.62-2.8,2.66-2.71,2.73.11,5.47.14,8.19,0,2.31-.13,2.82.95,2.76,3C833.76,342.82,833.84,346.26,833.84,349.7Z"/><path class="fdf7b7f3-b435-4f69-893e-0e5e062f263a" d="M889.47,349.28c0-3.32.09-6.64,0-9.95-.07-2.1.6-2.87,2.82-2.94C903,336,903,336,903,346.66c0,4.27-.06,8.53,0,12.8,0,2-.13,3.54-2.73,3.43a16.92,16.92,0,0,0-2.41.54c-7,.77-8.43-.49-8.43-7.39Z"/><path class="fdf7b7f3-b435-4f69-893e-0e5e062f263a" d="M866.64,317.54c0,3.44-.08,6.88,0,10.31.07,2.08-.56,2.88-2.8,3-10.79.36-10.78.43-10.78-10.26,0-4.26.16-8.54-.07-12.79-.13-2.43.83-3.32,3-3.76,3.12-.62,6.11-.09,9.14.47,1.52.27,1.42,1.34,1.43,2.41C866.65,310.43,866.64,314,866.64,317.54Z"/><path class="fdf7b7f3-b435-4f69-893e-0e5e062f263a" d="M886.61,317.73c0,3.43-.07,6.87,0,10.3.06,1.94-.56,2.84-2.63,2.75-2.73-.12-5.47-.14-8.19,0-2.29.12-2.81-.9-2.79-3q.13-10.31,0-20.61c0-1.92.68-2.58,2.5-3.06,3.37-.9,6.58-.23,9.83.35,1.52.28,1.23,1.54,1.24,2.55C886.63,310.62,886.61,314.17,886.61,317.73Z"/><path class="fdf7b7f3-b435-4f69-893e-0e5e062f263a" d="M889.47,317.59c0-3.2.2-6.42-.07-9.59-.21-2.56.77-3.59,3.15-4,3.12-.57,6.12-.05,9.15.52,1.29.24,1.31,1.18,1.31,2.15,0,7.23,0,14.46,0,21.68,0,1.89-.77,2.5-2.56,2.45-2.85-.08-5.7-.09-8.55,0-1.87.06-2.53-.71-2.49-2.52C889.53,324.7,889.47,321.14,889.47,317.59Z"/><path class="fdf7b7f3-b435-4f69-893e-0e5e062f263a" d="M850.24,349.65c0,3.56,0,7.11,0,10.67,0,1.56-.41,2.44-2.16,2.49-1.16,0-2.31.55-3.48.63-7,.48-7.93-.37-7.93-7.2,0-5.57.08-11.14,0-16.7,0-2.24.54-3.29,3-3.13a64.09,64.09,0,0,0,7.84,0c2.26-.13,2.88.85,2.8,2.94C850.16,342.78,850.24,346.22,850.24,349.65Z"/><path class="fdf7b7f3-b435-4f69-893e-0e5e062f263a" d="M764,343c0-3.43.08-6.86,0-10.29-.07-2,.72-2.81,2.7-2.64,1,.08,1.9,0,2.85,0,4.8.21,5.17.59,5.17,5.34,0,5.79-.07,11.59,0,17.38,0,2.11-.61,3-2.83,2.91-9.76-.24-7.65,1.22-7.9-7.39C763.91,346.51,764,344.74,764,343Z"/><path class="fdf7b7f3-b435-4f69-893e-0e5e062f263a" d="M795.33,343.26c0,3.2-.1,6.39,0,9.58.09,2.21-.78,2.8-2.9,2.85-7.84.19-7.83.26-7.83-7.47,0-5,.09-9.94,0-14.91-.06-2.36.54-3.63,3.15-3.28a18.9,18.9,0,0,0,2.13,0c5.06.15,5.46.55,5.46,5.41Z"/><path class="fdf7b7f3-b435-4f69-893e-0e5e062f263a" d="M754,343.46c0,3.18-.08,6.37,0,9.56.07,2-.74,2.59-2.7,2.67-8,.31-8,.37-8-7.61,0-4.84.09-9.69,0-14.52-.06-2.19.76-2.8,2.89-2.85,7.84-.2,7.84-.27,7.84,7.43Z"/><path class="fdf7b7f3-b435-4f69-893e-0e5e062f263a" d="M728.3,355.65h-.71a62.89,62.89,0,0,1-5-14.22c1.26-2.32.73-4.84.64-7.26s.6-3.7,3.34-3.45c2.22.21,4.47,0,6.71,0V350.8C733.29,355.64,733.29,355.64,728.3,355.65Z"/><path class="a8af64af-9ee7-49a1-8f6e-8a0cb9efc249" d="M446.61,342.7a17.4,17.4,0,0,1,0-1.77c.26-2.55-1.24-6.08.7-7.43,2.5-1.74,6.2-.53,9.37-.54,1.69,0,2.05,1.3,2.05,2.74,0,4.74.49,9.54-.13,14.19-.79,5.85-5.72,1.88-8.64,2.82-2.09.68-3.63-.17-3.4-2.91C446.77,347.45,446.61,345.07,446.61,342.7Z"/><path class="a8af64af-9ee7-49a1-8f6e-8a0cb9efc249" d="M438.77,343a22.93,22.93,0,0,1,0,3.89c-.32,1.77,1.28,4.17-1.47,5.18a13.61,13.61,0,0,1-10-.32c-.69-.28-.56-1.24-.57-1.94,0-4.61,0-9.23,0-13.84,0-1.34.26-2.29,1.85-2.44,1.05-.1,2.07-.54,3.12-.61,6.16-.39,7.16.54,7.16,6.53Z"/><path class="fdf7b7f3-b435-4f69-893e-0e5e062f263a" d="M466.58,342.51V340c0-7.47,1.33-8.52,8.84-7.09a2.74,2.74,0,0,1,2.6,3.13q-.13,6.75,0,13.49c0,1.69-.55,2.94-2.2,3.08a70.36,70.36,0,0,1-7.82.08c-1.53-.05-1.4-1.34-1.41-2.4C466.57,347.72,466.58,345.12,466.58,342.51Z"/><path class="fdf7b7f3-b435-4f69-893e-0e5e062f263a" d="M495.11,352.09h-8.56V333.6h8.56a3.94,3.94,0,0,1,1.05,2.91C495.85,341.71,497.36,347,495.11,352.09Z"/><path class="bd7ddf80-e6c9-440c-8ddc-a308d9d34bf6" d="M418.8,337.86c0,3.89-.08,7.78,0,11.66.06,2.06-.82,2.61-2.74,2.61s-3.12-.34-3-2.69c.14-3.88-.06-7.77.09-11.65.05-1.43-1-3.42,1.38-4.14,2.56-.78,3.48.9,4.27,2.79Z"/><path class="bd7ddf80-e6c9-440c-8ddc-a308d9d34bf6" d="M413.09,374.85c0-5.07.07-10.14,0-15.2,0-2,.8-2.63,2.73-2.63s3.13.34,3,2.69a96.81,96.81,0,0,0,0,11.3c.24,3.22-.95,4.32-4,3.85a11.61,11.61,0,0,0-1.77,0Z"/><path class="bd7ddf80-e6c9-440c-8ddc-a308d9d34bf6" d="M426.65,361.33c3,3.54,3.69,8,4.63,12.25.46,2-2.53.87-3.92,1.27C425.8,370.41,427.05,365.83,426.65,361.33Z"/><path class="a8af64af-9ee7-49a1-8f6e-8a0cb9efc249" d="M808.17,355.64c-2.09.26-2.94-.53-2.9-2.75q.18-9.69,0-19.38c0-2.22.8-3,2.9-2.76h0a4.65,4.65,0,0,1,1.1,3.27q.13,9.17,0,18.34a4.68,4.68,0,0,1-1.1,3.27Z"/><path class="bd7ddf80-e6c9-440c-8ddc-a308d9d34bf6" d="M808.17,355.64V330.76c2.1-.27,2.93.54,2.89,2.75q-.18,9.69,0,19.38C811.1,355.1,810.27,355.91,808.17,355.64Z"/><path class="bd7ddf80-e6c9-440c-8ddc-a308d9d34bf6" d="M722.6,341.42a44.64,44.64,0,0,1,5,14.22c-5,0-5,0-5-5.13Q722.59,346,722.6,341.42Z"/><path class="bd7ddf80-e6c9-440c-8ddc-a308d9d34bf6" d="M495.11,352.09V333.6c2.08-.26,3,.53,2.89,2.74q-.21,6.5,0,13C498.07,351.56,497.19,352.35,495.11,352.09Z"/></g></svg>
