<?xml version="1.0" encoding="utf-8"?>
<!-- Generator: Adobe Illustrator 25.0.0, SVG Export Plug-In . SVG Version: 6.00 Build 0)  -->
<svg version="1.1" id="Capa_1" xmlns="http://www.w3.org/2000/svg" xmlns:xlink="http://www.w3.org/1999/xlink" x="0px" y="0px"
	 viewBox="0 0 60 60" style="enable-background:new 0 0 60 60;" xml:space="preserve">
<style type="text/css">
	.st0{fill:#001B2B;}
	.st1{fill:#FFC100;}
	.st2{fill:#DC1A0E;}
	.st3{fill:#00908C;}
</style>
<path class="st0" d="M30,17c-7.2,0-13,5.8-13,13c0,7.2,5.8,13,13,13s13-5.8,13-13C43,22.8,37.1,17,30,17z M30,41
	c-6.1,0-11-4.9-11-11c0-6.1,4.9-11,11-11c6.1,0,11,4.9,11,11C41,36.1,36,41,30,41z"/>
<path class="st1" d="M30,19c-6.1,0-11,4.9-11,11c0,6.1,4.9,11,11,11c6.1,0,11-4.9,11-11C41,23.9,36,19,30,19z M30,37
	c-3.9,0-7-3.1-7-7s3.1-7,7-7s7,3.1,7,7S33.8,37,30,37z"/>
<path class="st0" d="M30,23c-3.9,0-7,3.1-7,7s3.1,7,7,7s7-3.1,7-7S33.8,23,30,23z M30,35c-2.8,0-5-2.2-5-5s2.2-5,5-5
	c2.8,0,5,2.2,5,5S32.7,35,30,35z"/>
<circle class="st2" cx="30" cy="30" r="5"/>
<path class="st0" d="M34.8,3.7l0-0.1C34.2,1.4,32.3,0,30,0h0c-2.3,0-4.2,1.5-4.8,3.6l0,0.1c-0.2,0.9-0.2,1.9,0,2.9
	c0.4,2,1.7,5.3,3.8,8c0.2,0.3,0.5,0.4,0.9,0.4c0.4,0,0.7-0.2,0.9-0.4c1.8-2.3,3.4-5.5,3.9-8C35,5.6,35,4.6,34.8,3.7z M32.8,6.2
	c-0.4,1.6-1.4,4.1-2.9,6.3c-1.4-2.1-2.4-4.6-2.8-6.3c-0.2-0.7-0.2-1.4,0-2.1C27.6,2.6,29,2,30,2h0c1,0,2.4,0.5,2.8,2.2
	C33,4.8,33,5.4,32.8,6.2z"/>
<path class="st3" d="M32.8,6.2c-0.4,1.6-1.4,4.1-2.9,6.3c-1.4-2.1-2.4-4.6-2.8-6.3c-0.2-0.7-0.2-1.4,0-2.1C27.6,2.6,29,2,30,2h0
	c1,0,2.4,0.5,2.8,2.2C33,4.8,33,5.4,32.8,6.2z"/>
<path class="st0" d="M34.8,53.4c-0.5-2-1.7-5.3-3.8-8c-0.2-0.3-0.5-0.5-0.9-0.5c-0.4,0-0.7,0.2-0.9,0.5c-2,2.6-3.4,5.9-3.9,8
	c-0.2,1-0.2,2,0,2.9l0,0.1c0.6,2.2,2.5,3.6,4.8,3.6c0,0,0,0,0,0c2.3,0,4.2-1.4,4.8-3.6l0-0.1C35,55.4,35,54.4,34.8,53.4z M32.8,55.9
	C32.4,57.4,31,58,30,58c-0.5,0-1.1-0.1-1.7-0.5c-0.5-0.3-1-0.9-1.2-1.7c-0.1-0.6-0.1-1.2,0-2c0.4-1.6,1.4-4.1,2.9-6.3
	c1.4,2.1,2.4,4.6,2.8,6.3C33,54.5,33,55.2,32.8,55.9z"/>
<path class="st3" d="M32.8,55.9C32.4,57.4,31,58,30,58c-0.5,0-1.1-0.1-1.7-0.5c-0.5-0.3-1-0.9-1.2-1.7c-0.1-0.6-0.1-1.2,0-2
	c0.4-1.6,1.4-4.1,2.9-6.3c1.4,2.1,2.4,4.6,2.8,6.3C33,54.5,33,55.2,32.8,55.9z"/>
<path class="st0" d="M56.4,25.2l-0.1,0c-0.9-0.2-1.9-0.2-2.9,0c-2,0.4-5.4,1.7-8,3.8c-0.3,0.2-0.4,0.5-0.5,0.9
	c0,0.3,0.2,0.7,0.5,0.9c2.6,2,5.9,3.4,8,3.9c0.5,0.1,1,0.2,1.5,0.2c0.5,0,0.9,0,1.4-0.2l0.1,0c2.2-0.6,3.6-2.5,3.6-4.8
	C60,27.7,58.5,25.8,56.4,25.2z M55.9,32.8l-0.1,0c-0.6,0.2-1.2,0.1-2,0c-1.7-0.4-4.2-1.4-6.3-2.9c2.1-1.4,4.6-2.4,6.3-2.8
	c0.7-0.2,1.4-0.2,2,0C57.4,27.6,58,29,58,30C58,31,57.4,32.4,55.9,32.8z"/>
<path class="st3" d="M58,30c0,1-0.5,2.4-2.1,2.8l-0.1,0c-0.6,0.2-1.2,0.1-2,0c-1.7-0.4-4.2-1.4-6.3-2.9c2.1-1.4,4.6-2.4,6.3-2.8
	c0.7-0.2,1.4-0.2,2,0C57.4,27.6,58,29,58,30z"/>
<path class="st0" d="M14.6,29.1c-2.3-1.8-5.5-3.3-8-3.9c-1-0.2-2-0.2-2.9,0l-0.1,0C1.4,25.8,0,27.7,0,30c0,2.3,1.5,4.2,3.6,4.8
	l0.1,0C4.2,34.9,4.6,35,5.1,35c0.5,0,1-0.1,1.5-0.2c2-0.5,5.2-1.7,8-3.8c0.3-0.2,0.4-0.5,0.4-0.9C15,29.7,14.8,29.3,14.6,29.1z
	 M6.2,32.8c-0.7,0.2-1.4,0.2-2,0C2.6,32.4,2,31,2,30c0-1,0.5-2.4,2.2-2.9C4.5,27.1,4.8,27,5.1,27c0.3,0,0.7,0,1.1,0.1
	c1.6,0.4,4.1,1.4,6.2,2.9C10.2,31.5,7.7,32.5,6.2,32.8z"/>
<path class="st3" d="M12.4,30c-2.2,1.5-4.7,2.4-6.3,2.8c-0.7,0.2-1.4,0.2-2,0C2.6,32.4,2,31,2,30c0-1,0.5-2.4,2.2-2.9
	C4.5,27.1,4.8,27,5.1,27c0.3,0,0.7,0,1.1,0.1C7.8,27.5,10.2,28.5,12.4,30z"/>
<path class="st0" d="M19.9,18.7c-0.4-3.2-1.9-6.7-3.1-8.6c-0.6-0.9-1.2-1.6-2-2L14.7,8c-2-1.1-4.3-0.8-5.9,0.8
	c-1.6,1.6-1.9,4-0.8,5.9L8,14.8c0.5,0.8,1.2,1.5,2,2c2,1.3,5.5,2.8,8.6,3.1c0.1,0,0.1,0,0.2,0c0.3,0,0.6-0.1,0.8-0.3
	C19.9,19.4,20,19.1,19.9,18.7z M11.1,15.1c-0.6-0.4-1.1-0.9-1.5-1.4c-0.8-1.4-0.2-2.8,0.5-3.5c0.5-0.5,1.2-0.9,2.1-0.9
	c0.5,0,1,0.1,1.5,0.4c0.5,0.3,1,0.8,1.4,1.4c1,1.5,2.1,4.1,2.6,6.7C15.3,17.3,12.7,16.1,11.1,15.1z"/>
<path class="st3" d="M17.8,17.8c-2.5-0.5-5.1-1.7-6.6-2.7c-0.6-0.4-1.1-0.9-1.5-1.4c-0.8-1.4-0.2-2.8,0.5-3.5
	c0.5-0.5,1.2-0.9,2.1-0.9c0.5,0,1,0.1,1.5,0.4c0.5,0.3,1,0.8,1.4,1.4C16.1,12.7,17.3,15.3,17.8,17.8z"/>
<path class="st0" d="M52,45.3L52,45.2c-0.5-0.8-1.2-1.5-2-2c-2-1.2-5.5-2.8-8.7-3.2c0,0-0.1,0-0.1,0c-0.3,0-0.6,0.1-0.8,0.3
	c-0.2,0.2-0.4,0.6-0.3,1c0.4,3.1,1.9,6.5,3.2,8.6c0.6,0.9,1.2,1.6,2,2.1l0.1,0.1c0.8,0.4,1.6,0.7,2.4,0.7c1.2,0,2.5-0.5,3.5-1.5
	C52.8,49.6,53.1,47.2,52,45.3z M49.8,49.8c-0.7,0.7-2.1,1.3-3.6,0.5c-0.5-0.3-1-0.8-1.4-1.4c-1-1.6-2.2-4.2-2.7-6.7
	c2.5,0.5,5.1,1.7,6.7,2.7c0.6,0.4,1.1,0.9,1.5,1.4C51.1,47.7,50.5,49,49.8,49.8z"/>
<path class="st3" d="M49.8,49.8c-0.7,0.7-2.1,1.3-3.6,0.5c-0.5-0.3-1-0.8-1.4-1.4c-1-1.6-2.2-4.2-2.7-6.7c2.5,0.5,5.1,1.7,6.7,2.7
	c0.6,0.4,1.1,0.9,1.5,1.4C51.1,47.7,50.5,49,49.8,49.8z"/>
<path class="st0" d="M51.2,8.8c-1.6-1.6-4-1.9-5.9-0.8L45.2,8c-0.8,0.5-1.5,1.2-2,2c-1.3,2.1-2.8,5.6-3.2,8.6c0,0,0,0.1,0,0.1
	c0,0.3,0.1,0.6,0.3,0.8c0.2,0.2,0.5,0.3,0.8,0.3c0.1,0,0.1,0,0.1,0c3.2-0.4,6.7-1.9,8.7-3.1c0.9-0.6,1.6-1.2,2.1-2.1l0-0.1
	C53.2,12.7,52.8,10.4,51.2,8.8z M50.3,13.8c-0.3,0.5-0.8,1-1.4,1.4c-1.6,1-4.3,2.1-6.7,2.7c0.5-2.5,1.7-5.1,2.7-6.7
	c0.4-0.6,0.9-1.1,1.4-1.5c0.5-0.3,1-0.4,1.4-0.4c0.8,0,1.6,0.4,2.1,0.9C50.5,10.9,51.1,12.3,50.3,13.8z"/>
<path class="st3" d="M50.3,13.8c-0.3,0.5-0.8,1-1.4,1.4c-1.6,1-4.3,2.1-6.7,2.7c0.5-2.5,1.7-5.1,2.7-6.7c0.4-0.6,0.9-1.1,1.4-1.5
	c0.5-0.3,1-0.4,1.4-0.4c0.8,0,1.6,0.4,2.1,0.9C50.5,10.9,51.1,12.3,50.3,13.8z"/>
<path class="st0" d="M19.6,40.3c-0.2-0.2-0.6-0.4-1-0.3c-3.1,0.4-6.5,1.9-8.6,3.2c-0.9,0.6-1.6,1.2-2.1,2L8,45.3
	c-1.1,2-0.8,4.3,0.8,5.9c1,1,2.2,1.5,3.5,1.5c0.8,0,1.7-0.2,2.4-0.6l0.1-0.1c0.8-0.5,1.5-1.2,2-2.1c1.2-1.9,2.7-5.5,3.1-8.6
	c0-0.1,0-0.1,0-0.2C20,40.8,19.8,40.5,19.6,40.3z M15.2,48.8c-0.4,0.6-0.9,1.1-1.5,1.5c-1.4,0.8-2.8,0.2-3.5-0.5
	c-0.7-0.7-1.3-2.1-0.5-3.6c0.3-0.5,0.8-1,1.4-1.4c1.6-1,4.2-2.2,6.6-2.7C17.3,44.6,16.1,47.3,15.2,48.8z"/>
<path class="st3" d="M17.8,42.2c-0.5,2.5-1.6,5.1-2.6,6.7c-0.4,0.6-0.9,1.1-1.5,1.5c-1.4,0.8-2.8,0.2-3.5-0.5
	c-0.7-0.7-1.3-2.1-0.5-3.6c0.3-0.5,0.8-1,1.4-1.4C12.7,43.9,15.3,42.7,17.8,42.2z"/>
</svg>
